<svg width="219" height="90" viewBox="0 0 219 90" fill="none" xmlns="http://www.w3.org/2000/svg">
<path d="M30.713 51.564C17.317 51.564 6.41681 41.4569 6.41681 29.045C6.41681 16.6332 17.317 6.52454 30.713 6.52454H63.4137V2.67599C63.4137 1.97447 63.1346 1.30168 62.6378 0.805625C62.141 0.309571 61.4671 0.0308917 60.7645 0.0308917H30.8292C13.8282 0.0308917 0 13.0538 0 29.0744C0 45.0951 13.8282 58.1149 30.8292 58.1149H60.7645C61.4671 58.1149 62.141 57.8362 62.6378 57.3402C63.1346 56.8441 63.4137 56.1713 63.4137 55.4698V51.5578H30.713V51.564Z" fill="white"/>
<path d="M30.8292 15.8907H60.7645C61.4669 15.8899 62.1402 15.6109 62.6369 15.115C63.1335 14.6192 63.4129 13.9469 63.4137 13.2456V9.26246H30.713C18.8306 9.26246 9.15271 18.1352 9.15271 29.0435C9.15271 39.9518 18.8244 48.8307 30.713 48.8307H63.4137V44.911C63.4137 44.2095 63.1346 43.5367 62.6378 43.0407C62.141 42.5446 61.4671 42.2659 60.7645 42.2659H30.8292C22.5843 42.2659 15.884 36.3523 15.884 29.076C15.884 21.7996 22.5905 15.8907 30.8292 15.8907Z" fill="white"/>
<path d="M136.295 0H131.983V45.8345C131.983 45.9672 131.947 46.0974 131.881 46.2121C131.814 46.3268 131.718 46.422 131.603 46.4883C131.488 46.5545 131.358 46.5894 131.225 46.5895C131.092 46.5896 130.961 46.5549 130.846 46.4889L80.0321 16.8838C79.9171 16.8162 79.7863 16.7803 79.6529 16.7797C79.5195 16.7791 79.3883 16.8138 79.2727 16.8803C79.1571 16.9468 79.0613 17.0428 78.9949 17.1583C78.9285 17.2739 78.8941 17.4049 78.895 17.5381V58.1799H83.242C83.7143 58.1799 84.1673 57.993 84.5018 57.6602C84.8363 57.3273 85.0251 56.8757 85.0267 56.4041V27.441L135.39 57.3415C135.726 57.5372 136.116 57.6191 136.502 57.5747C136.888 57.5304 137.25 57.3623 137.532 57.0956C137.707 56.9305 137.845 56.7316 137.94 56.5111C138.035 56.2906 138.083 56.0531 138.082 55.8132V1.78196C138.081 1.3092 137.892 0.856195 137.557 0.522189C137.222 0.188182 136.768 0.000407727 136.295 0Z" fill="white"/>
<path d="M76.1482 12.7769C76.1475 12.644 76.182 12.5132 76.2483 12.3978C76.3146 12.2825 76.4102 12.1867 76.5256 12.1203C76.6409 12.0538 76.7718 12.019 76.905 12.0194C77.0382 12.0199 77.1689 12.0554 77.2838 12.1226L128.107 41.7277C128.222 41.7947 128.353 41.8302 128.486 41.8306C128.619 41.831 128.75 41.7962 128.866 41.7298C128.981 41.6634 129.077 41.5677 129.143 41.4524C129.21 41.3371 129.245 41.2064 129.244 41.0734V0H124.804C124.331 0.00122499 123.878 0.18936 123.544 0.523278C123.209 0.857196 123.021 1.30973 123.019 1.78196V30.7822L72.8438 1.08279C72.5696 0.918275 72.2558 0.831133 71.9359 0.830655C71.463 0.83188 71.0097 1.02002 70.6753 1.35393C70.3409 1.68785 70.1525 2.14039 70.1512 2.61262V56.2881C70.1422 56.5531 70.1909 56.8168 70.2939 57.0611C70.3969 57.3055 70.5517 57.5246 70.7478 57.7034C70.9438 57.8823 71.1763 58.0165 71.4293 58.0969C71.6823 58.1773 71.9498 58.2019 72.2132 58.1691H76.1529V12.7769H76.1482Z" fill="white"/>
<path d="M201.669 45.372C201.61 45.2777 201.529 45.1998 201.431 45.1457C201.334 45.0916 201.225 45.063 201.113 45.0626H162.207C162.096 45.0639 161.988 45.093 161.892 45.147C161.796 45.2011 161.715 45.2785 161.657 45.372L153.66 58.1366H159.686C159.956 58.1378 160.223 58.07 160.459 57.9395C160.696 57.809 160.895 57.6201 161.038 57.391L165.686 50.0033L197.404 49.9785L202.148 57.4033C202.293 57.6303 202.493 57.8171 202.729 57.9464C202.966 58.0756 203.231 58.1432 203.501 58.1427H209.756L201.669 45.372Z" fill="white"/>
<path d="M218.753 55.6709L183.446 0.776485C183.303 0.553639 183.106 0.369916 182.874 0.241881C182.642 0.113847 182.381 0.0455245 182.116 0.0430654C181.851 0.0406063 181.589 0.104089 181.354 0.227796C181.12 0.351504 180.92 0.531547 180.772 0.751697L143.841 55.6461C143.678 55.8861 143.584 56.1659 143.569 56.4553C143.554 56.7447 143.618 57.0327 143.754 57.2884C143.891 57.5441 144.095 57.7577 144.344 57.9063C144.593 58.055 144.878 58.133 145.168 58.1319H150.398L181.277 9.9214C181.337 9.82947 181.419 9.75394 181.516 9.70166C181.612 9.64937 181.72 9.62198 181.83 9.62198C181.94 9.62198 182.048 9.64937 182.145 9.70166C182.241 9.75394 182.323 9.82947 182.383 9.9214L213.047 58.1242H217.413C217.698 58.1216 217.977 58.043 218.222 57.8964C218.467 57.7499 218.668 57.5407 218.804 57.2906C218.941 57.0405 219.008 56.7585 218.999 56.4737C218.99 56.1889 218.905 55.9118 218.753 55.6709Z" fill="white"/>
<path fill-rule="evenodd" clip-rule="evenodd" d="M199.09 41.3147L182.366 15.0462C182.306 14.9543 182.225 14.8787 182.128 14.8264C182.031 14.7742 181.923 14.7468 181.813 14.7468C181.703 14.7468 181.595 14.7742 181.499 14.8264C181.402 14.8787 181.32 14.9543 181.26 15.0462L164.283 41.3085C164.219 41.4071 164.183 41.521 164.179 41.6381C164.175 41.7552 164.203 41.8712 164.259 41.9741C164.315 42.0769 164.398 42.1628 164.499 42.2226C164.6 42.2824 164.715 42.3139 164.832 42.314H198.534C198.651 42.3148 198.766 42.2842 198.867 42.2253C198.969 42.1664 199.052 42.0813 199.109 41.9791C199.166 41.8769 199.194 41.7612 199.191 41.6443C199.188 41.5274 199.153 41.4135 199.09 41.3147ZM188.066 36.2519H175.683C175.545 36.252 175.41 36.2155 175.291 36.1461C175.172 36.0767 175.074 35.9768 175.007 35.8569C174.939 35.737 174.905 35.6013 174.908 35.4638C174.91 35.3263 174.95 35.192 175.022 35.0747L181.05 25.3064C181.118 25.1965 181.213 25.1056 181.326 25.0419C181.439 24.9783 181.566 24.944 181.696 24.9421C181.826 24.9403 181.954 24.9709 182.068 25.0314C182.183 25.0918 182.281 25.18 182.352 25.2879L188.714 35.0562C188.79 35.1728 188.833 35.3078 188.839 35.4468C188.844 35.5859 188.812 35.7239 188.746 35.8464C188.68 35.9688 188.581 36.0711 188.462 36.1425C188.342 36.2138 188.205 36.2516 188.066 36.2519Z" fill="white"/>
<path d="M18.8042 66.3999C19.2098 66.3999 19.6062 66.5197 19.9437 66.7441C20.2813 66.9686 20.5447 67.2877 20.701 67.6614C20.8573 68.035 20.8995 68.4465 20.8221 68.8439C20.7448 69.2414 20.5515 69.6072 20.2664 69.8952C19.9814 70.1833 19.6174 70.3807 19.2203 70.4627C18.8231 70.5446 18.4106 70.5075 18.0345 70.3559C17.6585 70.2044 17.3357 69.9451 17.1069 69.6108C16.878 69.2766 16.7533 68.8822 16.7484 68.4773C16.7449 68.2056 16.7955 67.9359 16.8973 67.6839C16.9991 67.4319 17.15 67.2026 17.3413 67.0093C17.5325 66.8161 17.7603 66.6626 18.0115 66.558C18.2626 66.4534 18.5321 66.3996 18.8042 66.3999ZM17.1497 84.8382V72.5176H20.4851V84.8382H17.1497ZM27.297 84.8368H23.9615V72.5161H27.1978V74.046C27.5824 73.4574 28.1121 72.9774 28.7362 72.6523C29.3602 72.3273 30.0575 72.168 30.761 72.1898C33.8238 72.1898 35.2258 74.3662 35.2258 77.0731V84.8368H31.8919V77.6501C31.9355 77.3324 31.9078 77.009 31.8109 76.7033C31.714 76.3975 31.5504 76.1171 31.3317 75.8822C31.1131 75.6474 30.8449 75.4639 30.5466 75.3451C30.2484 75.2263 29.9274 75.1751 29.6068 75.1952C29.2823 75.1956 28.9614 75.2638 28.6648 75.3954C28.3682 75.5271 28.1026 75.7194 27.885 75.9599C27.6674 76.2003 27.5026 76.4836 27.4014 76.7915C27.3001 77.0994 27.2645 77.4251 27.297 77.7475V84.8383V84.8368ZM40.803 84.7145C40.909 85.39 41.2621 86.0023 41.7941 86.4329C42.3261 86.8635 42.9991 87.0818 43.6829 87.0456C45.7883 87.0456 46.9688 85.9907 46.9688 83.6178V82.7175C46.577 83.2485 46.0571 83.6718 45.4574 83.9482C44.8577 84.2246 44.1977 84.3451 43.5389 84.2984C42.7616 84.3036 41.9914 84.1503 41.2755 83.8479C40.5596 83.5456 39.913 83.1005 39.3754 82.5399C38.8377 81.9793 38.4204 81.3151 38.1488 80.5879C37.8772 79.8607 37.7571 79.0857 37.796 78.3106C37.7652 77.5362 37.8906 76.7635 38.1648 76.0384C38.439 75.3134 38.8564 74.6507 39.3921 74.0899C39.9278 73.529 40.5709 73.0814 41.2833 72.7736C41.9956 72.4657 42.7627 72.304 43.5389 72.298C44.2223 72.228 44.9119 72.3474 45.5317 72.6432C46.1516 72.939 46.6778 73.3998 47.0525 73.9748V72.5192H50.264V83.5142C50.3407 84.3821 50.226 85.2563 49.9279 86.0752C49.6297 86.8941 49.1554 87.6378 48.5384 88.2539C47.9213 88.87 47.1765 89.3436 46.3563 89.6413C45.5362 89.939 44.6607 90.0535 43.7914 89.9769C42.4209 90.0832 41.0583 89.6901 39.9558 88.8705C38.8533 88.0509 38.0854 86.8603 37.7944 85.5189L40.803 84.7145ZM47.0277 78.3013C46.9898 77.7283 46.7847 77.179 46.4376 76.7211C46.0906 76.2633 45.6168 75.9169 45.0748 75.7249C44.5328 75.5329 43.9463 75.5037 43.3879 75.6407C42.8294 75.7778 42.3234 76.0752 41.9323 76.4963C41.5413 76.9173 41.2823 77.4435 41.1874 78.0098C41.0925 78.5762 41.1659 79.1579 41.3984 79.6831C41.6309 80.2082 42.0124 80.6539 42.4958 80.965C42.9792 81.2761 43.5432 81.4391 44.1183 81.4337C44.5222 81.4413 44.9232 81.3637 45.295 81.2059C45.6668 81.0481 46.0011 80.8137 46.2759 80.518C46.5507 80.2223 46.7598 79.872 46.8897 79.49C47.0195 79.108 47.067 78.7029 47.0292 78.3013H47.0277ZM53.6676 84.8367V66.7015H57.003V84.8367H53.6676ZM76.5618 80.7793C76.5832 81.0522 76.6592 81.3181 76.7851 81.5613C76.9111 81.8044 77.0844 82.02 77.295 82.1953C77.5057 82.3705 77.7492 82.502 78.0115 82.5818C78.2737 82.6617 78.5493 82.6884 78.822 82.6603C79.9282 82.6603 80.4518 82.0864 80.4518 81.4337C80.4518 80.8845 80.0754 80.4344 79.1241 80.2318L77.4944 79.8559C76.5634 79.7781 75.6943 79.3589 75.0546 78.679C74.415 77.9992 74.0501 77.107 74.0304 76.1744C74.0641 75.6057 74.2108 75.0495 74.4617 74.5379C74.7127 74.0263 75.063 73.5697 75.4923 73.1944C75.9215 72.8192 76.4212 72.5329 76.9622 72.3522C77.5033 72.1715 78.0749 72.1 78.6439 72.1418C82.1575 72.1418 83.338 74.3739 83.4852 75.6995L80.6966 76.3291C80.6396 75.8438 80.3955 75.3998 80.016 75.0913C79.6365 74.7829 79.1515 74.6343 78.664 74.677C77.7872 74.677 77.0823 75.2014 77.0823 75.9037C77.0823 76.5085 77.5331 76.8782 78.2132 77.0081L79.9669 77.384C82.4007 77.8836 83.6292 79.364 83.6292 81.1645C83.6292 83.1754 82.08 85.2219 78.8376 85.2219C75.1195 85.2219 73.8476 82.8165 73.6926 81.4166L76.5618 80.7793ZM105.538 82.6108C105.538 83.4368 105.588 84.3371 105.637 84.8367H102.451C102.37 84.3661 102.328 83.8896 102.327 83.4121C101.952 83.978 101.434 84.4354 100.826 84.7384C100.218 85.0414 99.5409 85.1793 98.8626 85.1384C97.2327 85.023 95.7064 84.2983 94.588 83.1089C93.4697 81.9195 92.8416 80.3528 92.8291 78.7214C92.8165 77.09 93.4205 75.5138 94.5205 74.3075C95.6205 73.1011 97.1356 72.3532 98.7634 72.2129C99.4293 72.1279 100.106 72.2254 100.72 72.4949C101.335 72.7643 101.864 73.1957 102.252 73.7427V66.7077H105.538V82.6108ZM99.27 82.1607C99.7094 82.1503 100.142 82.0477 100.539 81.8596C100.936 81.6715 101.289 81.4021 101.575 81.0689C101.861 80.7357 102.073 80.3461 102.198 79.9255C102.324 79.505 102.359 79.0628 102.302 78.6277C102.355 78.1986 102.317 77.7631 102.189 77.35C102.061 76.9369 101.846 76.5557 101.56 76.2316C101.273 75.9075 100.921 75.6479 100.526 75.47C100.131 75.2922 99.7031 75.2001 99.27 75.1999C98.4235 75.3099 97.6461 75.7238 97.0828 76.3643C96.5195 77.0047 96.2088 77.8279 96.2088 78.6803C96.2088 79.5326 96.5195 80.3558 97.0828 80.9963C97.6461 81.6367 98.4235 82.0506 99.27 82.1607ZM120.237 81.3037C119.871 82.4879 119.119 83.5159 118.101 84.2242C117.082 84.9325 115.856 85.2804 114.616 85.2126C112.935 85.1681 111.335 84.4802 110.148 83.291C108.96 82.1019 108.275 80.5024 108.236 78.8235C108.196 77.1446 108.804 75.5146 109.934 74.2707C111.064 73.0268 112.629 72.264 114.307 72.1402C118.118 72.1402 120.403 74.5703 120.403 78.5287C120.403 79.0036 120.353 79.5032 120.353 79.5589H111.523C111.573 80.3403 111.928 81.071 112.51 81.5952C113.093 82.1193 113.858 82.3955 114.641 82.3649C115.253 82.4134 115.864 82.254 116.374 81.9126C116.884 81.5712 117.264 81.0677 117.452 80.4839L120.237 81.3037ZM117.12 77.2711C117.116 76.9247 117.039 76.5831 116.895 76.2683C116.75 75.9534 116.541 75.6724 116.281 75.4434C116.02 75.2143 115.715 75.0423 115.384 74.9386C115.053 74.8348 114.704 74.8016 114.359 74.841C113.675 74.8153 113.007 75.0532 112.493 75.5055C111.979 75.9578 111.659 76.5898 111.599 77.2711H117.12ZM127.258 71.1611V72.5114H130.047V75.3623H127.258V84.8274H123.898V75.3623H121.842V72.5068H123.898V71.1147C123.848 70.5087 123.93 69.8991 124.137 69.3273C124.344 68.7555 124.671 68.2348 125.097 67.8003C125.523 67.3659 126.038 67.0279 126.606 66.8092C127.174 66.5906 127.783 66.4963 128.39 66.5329C128.953 66.5181 129.513 66.6035 130.045 66.785V69.591C129.7 69.5001 129.345 69.4584 128.988 69.4673C128.758 69.4418 128.525 69.4678 128.305 69.5434C128.086 69.619 127.887 69.7423 127.721 69.9044C127.555 70.0665 127.428 70.2634 127.348 70.4807C127.268 70.6981 127.237 70.9304 127.258 71.1611ZM134.039 66.3999C134.444 66.3999 134.841 66.5197 135.178 66.7442C135.516 66.9686 135.779 67.2878 135.936 67.6614C136.092 68.035 136.134 68.4465 136.057 68.844C135.979 69.2415 135.786 69.6072 135.501 69.8953C135.216 70.1833 134.852 70.3807 134.455 70.4627C134.058 70.5447 133.645 70.5075 133.269 70.356C132.893 70.2044 132.57 69.9452 132.342 69.6109C132.113 69.2766 131.988 68.8822 131.983 68.4773C131.98 68.2056 132.03 67.9359 132.132 67.6839C132.234 67.4319 132.385 67.2026 132.576 67.0094C132.767 66.8161 132.995 66.6627 133.246 66.558C133.497 66.4534 133.767 66.3996 134.039 66.3999ZM132.384 84.8383V72.5176H135.72V84.8383H132.384ZM142.532 84.8368H139.196V72.5162H142.432V74.046C142.818 73.4579 143.347 72.9784 143.971 72.6534C144.595 72.3283 145.292 72.1687 145.996 72.1898C149.058 72.1898 150.46 74.3662 150.46 77.0732V84.8368H147.125V77.6501C147.169 77.3324 147.141 77.009 147.044 76.7033C146.947 76.3976 146.783 76.1172 146.565 75.8823C146.346 75.6474 146.078 75.464 145.78 75.3451C145.481 75.2263 145.16 75.1752 144.84 75.1953C144.515 75.1956 144.194 75.2638 143.898 75.3955C143.601 75.5272 143.336 75.7195 143.118 75.9599C142.9 76.2004 142.736 76.4837 142.634 76.7916C142.533 77.0995 142.498 77.4251 142.53 77.7476L142.532 84.8368ZM155.481 66.3999C155.887 66.4 156.283 66.5198 156.621 66.7442C156.959 66.9687 157.222 67.2878 157.378 67.6615C157.535 68.0351 157.577 68.4466 157.499 68.844C157.422 69.2415 157.229 69.6073 156.944 69.8953C156.659 70.1834 156.295 70.3808 155.898 70.4628C155.5 70.5447 155.088 70.5076 154.712 70.356C154.336 70.2044 154.013 69.9452 153.784 69.6109C153.555 69.2766 153.431 68.8822 153.426 68.4773C153.422 68.2056 153.472 67.9358 153.574 67.6837C153.676 67.4316 153.827 67.2023 154.018 67.0089C154.209 66.8156 154.437 66.6622 154.688 66.5577C154.94 66.4531 155.209 66.3995 155.481 66.3999ZM153.827 84.8383V72.5177H157.162V84.8383H153.827ZM164.801 72.5177H167.28V75.4722H164.801V80.634C164.801 81.7168 165.302 82.0648 166.259 82.0648C166.606 82.0678 166.952 82.0346 167.291 81.9658V84.7223C166.689 84.9456 166.049 85.0507 165.407 85.0317C164.889 85.0823 164.367 85.0194 163.876 84.8476C163.385 84.6757 162.938 84.399 162.565 84.0367C162.192 83.6744 161.903 83.2352 161.718 82.7498C161.533 82.2644 161.456 81.7446 161.492 81.2264V75.4923H159.255V72.5378H159.875C160.135 72.558 160.396 72.5208 160.641 72.429C160.885 72.3372 161.106 72.1929 161.288 72.0064C161.47 71.8198 161.609 71.5956 161.694 71.3495C161.78 71.1035 161.811 70.8417 161.784 70.5826V68.8485H164.791V72.5177L164.801 72.5177ZM171.668 66.3999C172.073 66.4 172.47 66.5198 172.807 66.7442C173.145 66.9687 173.408 67.2878 173.564 67.6615C173.721 68.0351 173.763 68.4466 173.685 68.844C173.608 69.2415 173.415 69.6073 173.13 69.8953C172.845 70.1834 172.481 70.3808 172.084 70.4628C171.686 70.5447 171.274 70.5076 170.898 70.356C170.522 70.2044 170.199 69.9452 169.97 69.6109C169.741 69.2766 169.617 68.8822 169.612 68.4773C169.608 68.2057 169.659 67.936 169.761 67.684C169.862 67.432 170.013 67.2027 170.205 67.0094C170.396 66.8161 170.624 66.6627 170.875 66.5581C171.126 66.4535 171.395 66.3997 171.668 66.3999ZM170.015 84.8383V72.5177H173.35V84.8383H170.015ZM183.779 84.8383H180.444L175.404 72.5177H179.067L182.129 80.7809L185.064 72.5177H188.577L183.779 84.8383ZM202.264 78.6772C202.25 79.9522 201.858 81.1943 201.138 82.2473C200.417 83.3002 199.402 84.117 198.218 84.5948C197.034 85.0725 195.735 85.1899 194.484 84.9323C193.233 84.6746 192.087 84.0532 191.189 83.1465C190.292 82.2398 189.682 81.0882 189.439 79.8366C189.195 78.5851 189.327 77.2894 189.819 76.1129C190.311 74.9363 191.141 73.9313 192.204 73.2244C193.266 72.5175 194.515 72.1403 195.792 72.1402C196.653 72.1212 197.51 72.2779 198.308 72.6006C199.107 72.9234 199.832 73.4054 200.438 74.0173C201.043 74.6292 201.518 75.358 201.832 76.1592C202.146 76.9604 202.293 77.8173 202.264 78.6772ZM198.929 78.6772C198.86 78.0728 198.618 77.5011 198.231 77.0312C197.844 76.5613 197.329 76.2131 196.749 76.0288C196.168 75.8444 195.546 75.8318 194.959 75.9923C194.371 76.1528 193.842 76.4796 193.437 76.9334C193.031 77.3872 192.765 77.9485 192.672 78.5496C192.578 79.1508 192.661 79.766 192.91 80.3213C193.159 80.8765 193.564 81.3479 194.075 81.6787C194.586 82.0095 195.183 82.1855 195.792 82.1855C196.236 82.1836 196.675 82.0885 197.08 81.9064C197.485 81.7243 197.847 81.4593 198.142 81.1285C198.438 80.7977 198.661 80.4086 198.797 79.9863C198.932 79.564 198.977 79.118 198.929 78.6772ZM61.536 71.0125H64.4996L65.8939 69.1316L67.3207 71.0125H70.3587L67.9807 67.8307H63.9233L61.536 71.0125ZM71.8987 78.5302C71.8987 74.5718 69.6136 72.1417 65.8025 72.1417C64.1252 72.2655 62.5596 73.0283 61.4296 74.2722C60.2996 75.5162 59.6917 77.1461 59.7315 78.825C59.7712 80.504 60.4558 82.1034 61.6434 83.2926C62.8311 84.4817 64.431 85.1697 66.1124 85.2141C67.3519 85.2833 68.579 84.936 69.5977 84.2275C70.6165 83.519 71.3682 82.4902 71.7329 81.3053L68.9443 80.4792C68.7567 81.0631 68.377 81.5665 67.8669 81.9079C67.3568 82.2493 66.7462 82.4087 66.1341 82.3602C65.3518 82.388 64.5894 82.1107 64.0084 81.5869C63.4274 81.0631 63.0735 80.3341 63.0217 79.5542H71.8522C71.8492 79.5047 71.8987 79.0051 71.8987 78.5302ZM63.0914 77.2726C63.1517 76.5914 63.4718 75.9593 63.9856 75.507C64.4994 75.0548 65.1676 74.8169 65.8521 74.8425C66.1967 74.8031 66.5458 74.8364 66.8768 74.9401C67.2077 75.0439 67.5132 75.2158 67.7734 75.4449C68.0336 75.6739 68.2428 75.955 68.3874 76.2698C68.5319 76.5847 68.6087 76.9263 68.6128 77.2726H63.0914Z" fill="white"/>
</svg>
