<svg width="137" height="90" viewBox="0 0 137 90" fill="none" xmlns="http://www.w3.org/2000/svg">
<path fill-rule="evenodd" clip-rule="evenodd" d="M42.6345 2.69674e-05C56.5182 0.0176707 65.8334 4.11986 77.787 19.3938C84.6042 27.8114 91.6703 21.4043 93.5173 19.4862C98.5866 14.589 104.267 11.6861 111.503 11.686C125.394 11.686 136.657 24.3243 136.658 39.9124C136.658 55.5017 125.394 68.1388 111.503 68.1388C106.026 68.1387 100.959 66.1725 96.8286 62.8412L96.8209 62.86C87.0092 56.2504 85.5608 67.6584 85.5323 67.7414C83.814 79.5743 77.0152 85.5501 68.1589 88.4198C60.711 90.836 53.5587 90.5647 47.477 87.0282C44.5175 85.3069 42.8776 83.6559 42.8617 83.6398C42.3035 83.1525 41.7703 82.7292 41.2533 82.3573C40.7315 81.9495 40.1059 81.5596 39.4038 81.2102C36.5848 79.7259 33.9669 79.5812 29.8327 78.8417C25.1149 78.0266 21.511 76.5054 17.5124 74.1889C6.30527 66.789 0.00391299 55.9531 6.53672e-08 39.9124C-0.0013159 15.8837 19.8664 -0.0239057 42.6345 2.69674e-05ZM44.2637 3.23765C25.3114 3.23765 9.04173 18.2983 9.04173 38.9252C9.04179 47.4389 11.7381 55.771 16.6425 62.3813C16.6849 62.4541 17.0051 62.9836 17.734 63.7847C19.738 66.2353 22.0564 68.42 24.6039 70.2335C34.0584 77.9337 49.7513 85.8101 66.3685 79.483C70.242 78.1851 73.7461 76.2229 76.7477 73.656C76.7958 73.623 77.0964 73.3996 77.0964 73.3996C79.9192 70.8705 82.1422 67.9622 83.6926 64.7358C83.7134 64.7036 83.9307 64.2114 83.9323 64.2078C85.845 59.4381 90.4549 53.645 98.9108 58.1619C101.757 59.7694 105.032 60.6346 108.316 60.6346C119.545 60.6346 128.673 50.8261 128.673 38.764C128.673 26.7058 119.545 16.8919 108.316 16.8919C101.872 16.892 96.2151 19.4735 92.5439 23.197C89.7231 25.8187 86.745 26.9802 83.7475 26.6034C77.865 25.8566 73.5767 18.879 73.5767 18.879C65.8025 8.09726 55.6014 3.23765 44.2637 3.23765Z" fill="white"/>
<path d="M116 40.033C114.237 39.3263 111.794 38.9578 108.765 38.9578H102.604L100.12 38.9161C99.5538 38.8871 99.1227 38.8567 98.8075 38.8165C97.1874 38.7575 95.8991 37.8243 95.8991 36.6799C95.8991 36.1505 96.1711 35.6622 96.6287 35.2888C97.3513 34.5198 99.6372 34.1042 103.23 34.1042C116.339 34.1042 117.606 34.0483 117.845 33.9623C117.814 33.985 117.772 34.0036 117.772 34.0036C118.313 33.8436 119.222 33.3829 119.222 32.0496C119.222 29.788 117.616 29.5455 116.928 29.5455C113.755 29.5455 97.5674 29.6977 95.801 30.0986C92.2132 31.0328 90.4085 32.9883 90.4085 35.9257V37.6358C90.4085 39.2876 91.1518 40.638 92.6266 41.6434C93.9148 42.5198 95.4672 43.0513 97.2404 43.2343C97.2699 43.2407 99.701 43.3761 99.701 43.3761L101.231 43.4345C101.239 43.4345 108.898 43.6607 108.898 43.6607C110.527 43.7118 111.83 43.8698 112.77 44.1142C113.077 44.1726 113.365 44.2707 113.624 44.3953C113.84 44.4935 114.018 44.5975 114.155 44.7172C114.705 45.1378 115.051 45.7035 115.051 46.3297C115.051 47.6061 113.636 48.6375 111.888 48.6375C111.846 48.6375 109.907 48.8073 108.714 48.8073H92.7483C91.5995 48.8073 91.0615 49.2627 90.813 49.6478C90.5783 50.0164 90.4713 50.5508 90.4713 51.3472C90.4713 52.6711 91.2961 53.4268 92.7483 53.4268H108.711C114.832 53.4268 118.428 52.4145 119.717 50.3417C120.213 49.561 120.449 48.5349 120.449 47.1973V45.1691C120.449 42.8511 118.951 41.1223 116 40.033ZM83.2958 29.6024C82.0085 29.6024 80.954 30.0397 80.1557 30.9131L80.1086 30.9656C80.1086 30.9656 69.1334 45.9474 68.0881 47.3705C67.0577 45.9371 56.2471 30.9813 56.2471 30.9813L56.1912 30.9249C55.389 30.0632 54.3089 29.6304 52.9756 29.6304C50.8807 29.6304 49.727 30.5937 49.727 32.3381V51.3443C49.727 52.332 50.2454 53.0195 51.2018 53.2845C51.4305 53.3532 51.8959 53.4268 53.3904 53.4268C54.8524 53.4268 55.6914 52.6711 55.6914 51.3443V38.8283C57.6238 41.7352 64.496 52.0489 64.496 52.0489L64.5514 52.1244C65.4012 53.0622 66.5712 53.5382 68.0234 53.5382C69.4653 53.5382 70.6258 53.0622 71.4806 52.1244L71.5269 52.0548C71.5269 52.0548 78.6967 41.6675 80.6467 38.8434V51.3443C80.6467 52.6711 81.4812 53.4268 82.9482 53.4268C84.4288 53.4268 84.8963 53.3448 85.1211 53.2908C86.0882 53.0195 86.6125 52.3242 86.6125 51.3443V32.4981C86.6125 30.6309 85.4313 29.6024 83.2958 29.6024ZM28.7722 34.0963L29.3834 34.1042L34.5687 34.1159C37.6474 34.1179 41.3997 34.1209 41.8985 34.1327C42.03 34.1586 42.1542 34.1586 42.2563 34.1586H43.5622C45.0066 34.1586 45.8368 33.3936 45.8368 32.0663C45.8368 29.788 44.2471 29.5455 43.5622 29.5455H27.3406C22.606 29.5455 19.241 30.5667 17.3406 32.5855C16.4187 33.5777 15.9552 34.6989 15.9552 35.9183V47.1595C15.9552 49.4098 17.3376 51.1048 20.0438 52.2172C22.1371 53.0195 24.4465 53.4268 26.9405 53.4268H43.4052C44.0895 53.4268 45.7008 53.1736 45.7008 50.8864C45.7008 49.5649 44.8623 48.8073 43.4052 48.8073H27.1457C24.7607 48.8073 21.9206 48.502 21.9206 47.0147V43.8938H43.4052C44.929 43.8938 45.8044 43.0135 45.8044 41.4805C45.8044 40.0776 44.929 39.2738 43.4209 39.2738H21.8843V35.9316C21.8843 34.7426 24.335 34.0963 28.7722 34.0963Z" fill="white"/>
</svg>
