<svg width="351" height="297" viewBox="0 0 351 297" fill="none" xmlns="http://www.w3.org/2000/svg">
<g clip-path="url(#clip0_14_6)">
<path d="M265.744 214.021L260.756 268.434H172.326V234.426C161.884 225.79 158.399 221.256 158.721 214.021L165.07 195.884C165.07 195.884 121.535 231.252 103.849 239.867C86.163 248.482 74.2473 245.585 70.7444 230.345L63.4886 184.548C58.2356 140.895 56.741 119.194 59.4072 90.687C62.2134 82.5992 63.9219 80.2867 67.1165 78.8977L80.2676 75.2702L78.9072 60.7603L109.291 55.7725L116.093 121.067L92.0583 124.241H86.163H82.9886L89.3374 184.548H92.0583L94.7793 201.779C123.992 170.53 141.395 158.591 175.047 151.901L201.349 153.261L204.07 122.427L185.023 111.998L182.303 94.7679L185.023 48.971L214.954 30.3801L257.582 57.5862V77.5374L263.93 86.6061L262.116 92.5007L253.047 97.0351L246.244 156.435C272.145 155.654 281.927 159.559 289.779 175.479L304.744 226.718C306.529 175.882 307.284 147.342 312.454 97.0351L319.709 81.6183C324.746 75.7259 325.879 72.2925 328.326 66.2015C332.693 68.06 331.347 72.7186 328.326 81.6183L335.582 66.2015C338.469 71.4065 337.487 75.0602 335.582 81.6183L343.291 67.5618C344.381 71.9281 343.24 75.8908 340.116 83.8855L349.186 70.7359C351.454 81.6183 337.849 90.687 335.582 110.638C335.582 110.638 335.128 179.56 333.314 228.078C331.5 276.595 294.589 272.689 277.989 241.681L269.826 225.357L265.744 214.021Z" fill="white"/>
<path d="M204.315 97.2447C202.999 97.3859 201.674 97.4632 200.351 97.5641C199.571 97.6246 198.804 97.6852 198.023 97.6852C198.04 100.644 198.195 103.822 199.497 106.512C199.604 106.62 199.746 106.684 199.907 106.68C204.806 106.378 204.035 100.782 204.315 97.248V97.2447ZM206.542 96.1316C206.619 99.5145 206.714 103.223 205.398 106.381C203.803 108.937 199.147 110.904 197.39 107.497C196.438 106.152 193.71 93.4213 197.333 95.0455C199.702 95.0085 202.353 94.763 204.641 94.5613C205.654 94.2889 206.475 95.1733 206.539 96.135L206.542 96.1316Z" fill="#231F20"/>
<path d="M204.412 68.9379C206.538 69.1867 205.633 75.0041 205.297 76.5341C204.684 78.3365 204.523 81.0804 202.787 82.1296C201.31 82.402 195.687 81.7193 197.013 84.5036C198.366 85.657 200.347 85.8588 202.023 85.6873C203.365 85.6469 204.042 87.9133 202.635 88.3337C202.003 88.5254 201.32 88.4951 200.667 88.4547C196.946 88.4446 192.545 85.0114 195.179 81.1948C196.848 79.4361 199.476 79.4663 201.723 79.4159C202.655 77.3411 203.19 75.2899 203.362 73.0739C203.611 71.8634 202.558 69.0085 204.408 68.9412L204.412 68.9379Z" fill="#231F20"/>
<path d="M194.806 69.6709C195.058 71.3085 193.332 73.4841 191.694 72.1761C189.477 70.9924 190.015 66.0056 192.986 67.0077C194.022 67.4616 194.672 68.5747 194.809 69.6742L194.806 69.6709Z" fill="#231F20"/>
<path d="M230.797 73.8002C233.516 73.4606 236.217 71.8633 237.371 69.338C234.239 66.6512 229.694 65.8879 225.949 67.4448C225.918 67.4549 225.888 67.4616 225.858 67.4717C224.764 67.7643 223.829 68.3124 223.035 69.0253C221.76 70.1618 220.848 71.7154 220.215 73.3059C223.186 75.5017 227.358 73.965 230.767 73.8002H230.797ZM239.128 67.6768C239.562 68.0871 239.888 68.5679 239.908 69.2203C238.435 76.7829 229.068 77.173 222.833 77.1461C220.898 77.1562 216.171 74.7889 217.833 72.4384C217.776 71.9743 217.921 71.4968 218.399 71.3018C219.691 67.048 223.6 64.5933 227.846 64.0418C228.819 63.914 229.805 63.8905 230.787 63.9645C231.709 64.0317 232.614 64.1931 233.495 64.4386C234.357 64.6807 235.191 65.0136 235.972 65.4339C236.386 65.6525 236.783 65.898 237.16 66.1771C237.402 66.3385 237.641 66.5268 237.869 66.7185C238.283 67.0178 238.751 67.317 239.131 67.6735L239.128 67.6768Z" fill="#231F20"/>
<path d="M226.215 68.9345C228.432 70.3266 227.318 75.031 224.428 73.9415C222.359 73.0605 221.797 69.496 224.3 68.8269C224.875 68.4032 225.666 68.494 226.215 68.9345Z" fill="#231F20"/>
<path d="M191.875 66.2814C196.189 65.8274 196.148 73.2522 191.882 72.9192C188.662 72.3678 188.948 67.0581 191.875 66.2814Z" fill="#231F20"/>
<path d="M226.928 68.2284C229.018 70.2729 229.085 74.6073 225.32 74.3652C222.642 74.1164 221.854 71.3254 223.082 69.1968C223.062 69.1363 223.045 69.0791 223.032 69.0253C222.608 67.307 224.475 66.9371 225.855 67.4718C226.289 67.6399 226.676 67.8955 226.928 68.2317V68.2284Z" fill="#231F20"/>
<path d="M230.848 60.622C231.393 60.9449 231.732 61.7384 231.48 62.3504C231.271 62.7439 231.056 63.366 230.787 63.9645C230.276 65.0977 229.582 66.1402 228.425 65.4206C228.041 65.1112 227.836 64.6404 227.843 64.1696C227.843 64.1226 227.843 64.0822 227.846 64.0385C227.866 63.6686 228.038 63.2853 228.361 63.1272C229.044 62.2529 229.296 59.8453 230.848 60.6187V60.622Z" fill="#231F20"/>
<path d="M236.201 61.7351C236.756 62.068 237.103 62.8717 236.85 63.5005C236.621 63.9746 236.339 64.7716 235.969 65.4374C235.437 66.4125 234.717 67.1019 233.731 66.0359C233.449 65.6761 233.301 65.1549 233.408 64.6942C233.428 64.6068 233.455 64.5227 233.496 64.442C233.583 64.2504 233.718 64.0923 233.9 63.9982C234.461 63.1138 234.734 60.9684 236.201 61.7384V61.7351Z" fill="#231F20"/>
<path d="M238.374 64.0856C239.349 62.9389 240.911 64.6976 240.261 65.7938C239.972 66.2948 239.592 67.1187 239.127 67.6769C238.586 68.3292 237.936 68.6184 237.213 67.5895C236.951 67.1052 236.984 66.6345 237.156 66.1771C237.435 65.4474 238.061 64.7514 238.37 64.0822L238.374 64.0856Z" fill="#231F20"/>
<path d="M233.681 53.5671C236.352 53.9975 248.246 58.6414 246.49 62.0612C246.056 62.6328 245.265 62.5151 244.811 62.0444C242.489 59.1659 238.617 58.1605 235.437 56.7078C229.552 55.1913 223.052 56.9365 218.002 60.0268C217.628 60.2588 217.231 60.6354 216.797 60.7262C215.711 60.938 214.89 59.5156 215.391 58.601C220.226 54.5389 227.382 52.9047 233.681 53.5671Z" fill="#231F20"/>
<path d="M104.736 61.1667C106.098 63.1944 104.133 66.594 101.627 65.5516C99.0057 64.711 98.9183 59.8452 102.071 60.0873C102.976 59.1121 104.271 60.2891 104.732 61.1633L104.736 61.1667Z" fill="#231F20"/>
<path d="M241.48 228.745C242.785 228.842 243.354 231.132 241.951 231.522C241.211 231.66 240.467 231.65 239.72 231.63C234.448 231.69 229.603 229.054 226.151 225.18C225.179 223.805 223.298 222.359 223.651 220.516C223.984 219.501 225.317 219.723 225.751 220.506C227.066 222.52 228.772 224.309 230.757 225.681C233.768 228.16 237.715 228.61 241.483 228.748L241.48 228.745Z" fill="#231F20"/>
<path d="M91.5972 194.826C91.6645 194.799 91.7285 194.785 91.7958 194.768C91.2608 191.91 90.6821 189.062 90.4398 186.184C88.7003 186.385 86.7758 186.446 85.107 186.658C79.1584 188.063 73.1055 188.642 67.0694 189.529C66.3662 189.64 65.6563 189.721 64.9497 189.809C65.2324 191.782 65.4814 193.76 65.7001 195.74C65.8716 197.573 66.0836 199.419 66.3225 201.268C66.3427 201.275 66.3595 201.279 66.3797 201.285C74.6128 198.467 83.2497 197.102 91.604 194.822L91.5972 194.826ZM95.9813 85.3778C96.6307 85.1693 97.2161 84.7557 97.5054 84.1235C95.0964 81.763 81.4833 85.7309 81.9308 80.7811C82.2908 79.5571 83.8251 79.3889 84.8513 78.9955C87.5126 77.9026 90.5509 77.3713 92.9027 75.6732V75.6665C89.5819 74.9267 86.0154 75.8985 82.6946 76.4163C79.044 77.2604 75.38 78.0405 71.763 79.0022C71.541 79.5033 70.9892 79.8631 70.0336 79.8059C60.1889 80.6297 61.0603 93.0043 60.1148 100.288C58.2576 122.064 61.602 143.774 62.7964 165.449C63.106 172.491 64.3509 179.435 65.1348 186.432C68.2235 185.847 71.329 185.161 74.4715 184.886C78.8791 184.042 83.2665 183.298 87.7078 182.797C85.2987 159.995 82.0957 137.317 81.1031 114.404C80.9113 111.375 80.77 108.318 80.9652 105.285C80.9046 104.081 81.6953 103.028 82.9334 102.928C87.3108 101.784 91.5838 100.069 95.8703 98.8419C95.8232 98.852 95.7828 98.8688 95.7491 98.8251C93.3536 98.1324 83.4146 99.0067 84.4408 95.1766C84.7436 94.3359 85.6285 94.2418 86.399 94.1947C90.4634 93.9257 94.9988 94.5074 98.6931 92.5504C97.5862 91.4239 95.8602 91.6794 94.4168 91.5046C91.3247 91.1414 88.2024 90.6505 85.1608 90.0317C83.9395 89.5509 83.788 87.5434 85.1204 87.1029C88.6633 86.1815 92.4485 86.3597 95.9813 85.3845V85.3778ZM114.19 119.795C113.467 104.73 112.754 89.608 110.685 74.6577C109.551 68.8369 109.961 62.6496 107.804 57.0743V57.0676C102.919 56.4153 98.0303 57.6325 93.2526 58.5337C89.851 59.2735 86.1769 59.4181 82.9065 60.6018C81.9745 60.7833 80.8979 61.4424 79.8952 61.5568C79.8952 61.5635 79.8885 61.5668 79.8885 61.5736C79.5352 65.6491 80.622 69.5397 80.659 73.4807C84.8176 72.5795 89.02 72.1256 93.1921 72.9461C98.4644 76.2583 93.7573 79.4562 89.7972 80.5692C92.9902 80.4683 97.0243 79.6983 99.2752 82.5734C101.567 85.2736 98.1111 88.3908 95.3824 88.7136C100.702 88.643 104.336 94.7294 97.5526 96.2863C100.836 97.211 101.556 100.298 98.0673 101.626C93.4612 103.442 88.7441 105.009 83.9664 106.294C83.9967 107.706 84.037 109.115 84.0875 110.524C84.8782 111.106 85.181 112.417 85.3223 113.362C86.3586 116.64 86.547 120.091 87.3074 123.423C92.1827 122.582 97.0142 121.89 101.89 121.113C105.998 120.733 110.19 121.052 114.187 119.791L114.19 119.795ZM188.844 525.055C188.464 525.143 188.009 525.153 187.488 525.055L187.7 525.065C179.06 524.416 170.238 524.917 161.725 523.263C162.486 534.962 162.94 546.684 162.768 558.443C162.886 562.425 162.718 566.429 162.61 570.421C162.933 570.28 163.263 570.36 163.535 570.559C169.921 570.371 176.314 570.932 182.697 570.979C183.45 570.932 184.032 571.453 184.322 572.112C184.877 561.231 185.459 550.474 187.155 539.673C187.666 534.81 188.231 529.935 188.84 525.055H188.844ZM193.251 73.7531C195.499 73.7329 198.729 72.8889 198.931 70.2291C196.562 66.9673 192.007 64.8555 188.215 66.8967C188.427 68.0332 188.275 69.264 188.746 70.34C189.719 71.9877 191.236 73.6724 193.251 73.7531ZM258.07 169.427C259.648 166.31 259.82 162.857 260.476 159.498C257.367 159.144 254.265 158.744 251.169 158.213C250.035 157.91 248.68 157.964 247.465 157.752C244.184 161.845 240.689 165.89 237.57 170.083C236.978 170.853 236.375 171.61 235.766 172.37C235.803 172.37 235.834 172.37 235.864 172.363C236.399 172.323 236.85 172.753 237.041 173.227C242.442 177.151 246.449 182.559 251.556 186.822C253.848 181.086 255.378 174.993 258.07 169.421V169.427ZM257.229 91.0674C259.298 90.7446 262.437 89.7257 261.926 87.0928C259.729 83.7234 255.523 82.7919 252.239 80.8819C251.126 80.28 251.196 78.9451 251.304 77.9161C251.072 71.5237 253.333 65.1783 252.458 58.7994C248.101 54.9458 242.6 52.6995 237.371 50.2851C231.362 47.3428 225.35 44.3467 219.784 40.6242C217.096 38.768 214.754 36.6428 211.925 35.17C207.568 37.8702 203.12 40.4258 198.685 43.005C195.385 45.184 191.899 47.1074 189.449 50.0397C189.231 50.3894 188.884 50.5911 188.528 50.6315C188.41 51.7647 188.289 52.9013 188.147 54.0345C192.131 53.1602 196.269 54.707 199.849 56.4623C201.273 57.2257 202.531 58.258 203.756 59.3004C204.56 59.9191 205.673 60.8069 205.081 61.93C204.839 62.4008 204.257 62.5925 203.789 62.3604C201.582 60.6926 199.284 58.638 196.613 57.804C193.729 56.7818 190.748 55.8402 187.74 56.9096C187.542 58.1537 187.306 59.3878 187.017 60.6018C186.855 62.078 186.707 63.5542 186.573 65.0337C187.094 64.0014 188.729 63.7593 189.793 63.5575C190.223 63.4768 190.647 63.4197 191.075 63.4062C191.122 63.1238 191.246 62.8615 191.488 62.7068C191.788 61.8628 192.02 60.9918 192.404 60.168C193.194 58.8935 194.883 60.4168 194.382 61.55C194.093 62.0645 193.951 62.9354 193.709 63.6988C194.109 63.7963 194.503 63.9274 194.887 64.0787C195.27 63.3591 195.899 62.6732 196.172 61.9805C196.532 61.1701 197.265 60.0536 198.221 60.8338C199.637 62.1688 197.868 63.8904 197.117 65.2557C197.397 65.4373 197.659 65.6357 197.921 65.8307C198.315 64.9598 199.203 64.0552 199.688 63.423C200.724 62.2596 202.305 64.1964 201.458 65.2389C200.896 65.982 200.263 66.6714 199.738 67.4347C203.934 71.9406 198.793 76.951 193.066 76.5508C189.655 76.0666 187.057 73.2185 186.162 69.96C185.843 74.1802 185.6 78.4037 185.358 82.6272C185.301 91.5752 183.289 101.485 188.312 109.411C190.038 112.182 193.272 113.866 196.192 114.986C198.89 115.911 201.76 116.23 204.476 117.074C205.768 117.252 206.636 118.389 206.501 119.674C206.239 129.614 204.688 139.446 204.159 149.366C203.746 150.792 204.469 154.955 203.042 155.728C207.039 168.15 211.39 180.467 214.371 193.191C219.179 188.665 222.574 182.979 227.099 178.265C232.974 170.779 238.784 163.19 244.666 155.721C244.467 155.082 244.484 154.339 244.915 153.825C244.941 153.794 244.965 153.764 244.995 153.734C244.999 153.475 245.046 153.219 245.106 152.981C245.867 141.585 246.53 130.192 248.077 118.863C249.47 110.369 249.601 101.72 250.967 93.2263C250.829 92.473 251.297 91.471 252.182 91.5315C252.411 91.5786 252.603 91.6525 252.754 91.7534C253.067 91.6862 253.413 91.6626 253.77 91.6626C255.025 91.5214 256.031 91.3331 257.226 91.0708L257.229 91.0674ZM326.139 438.332C326.119 438.265 326.109 438.195 326.099 438.124C325.638 432.626 325.153 427.35 324.786 421.876C324.827 420.641 324.537 419.276 324.504 417.972C318.461 419.024 312.522 420.608 306.449 421.506C298.57 423.443 290.77 425.736 283.052 428.255C286.164 437.125 286.938 446.621 289.495 455.647C289.536 455.775 289.583 455.909 289.623 456.057C292.836 454.52 296.019 452.93 299.179 451.285C308.371 447.391 317.034 442.398 326.139 438.332ZM329.039 237.985C330.173 231.035 330.789 224.024 331.125 216.992C325.416 216.945 319.931 215.829 314.242 215.449C312.085 215.456 309.935 215.506 307.778 215.388C307.489 215.405 307.176 215.405 306.863 215.371C306.712 217.147 306.54 218.916 306.338 220.688C305.888 223.647 305.978 226.646 305.877 229.632C305.851 230.228 305.84 231.004 305.336 231.418C303.078 232.77 302.452 229.374 302.213 227.786C301.318 223.099 299.411 218.405 299.374 213.623C298.603 210.253 297.93 206.861 297.207 203.474C296.595 201.016 295.891 198.582 295.178 196.15C295.171 196.14 295.168 196.124 295.161 196.11C294.492 194.234 293.819 192.347 293.203 190.431C292.301 186.126 290.272 182.246 288.89 178.103C285.956 169.407 278.732 162.547 269.762 160.54C267.565 160.278 265.375 160.039 263.178 159.797C262.417 162.352 262.283 165.093 261.623 167.618C261.024 169.616 260.008 171.63 259.167 173.456C257.478 177.542 256.085 181.741 254.631 185.915C254.379 186.634 254.107 187.34 253.827 188.05C253.525 188.84 253.087 190.175 252.044 190.054C250.658 189.63 249.786 188.248 248.703 187.418C245.201 184.842 242.411 181.177 239.238 178.308C237.906 177.125 236.597 175.904 235.093 174.939C234.72 174.872 234.38 174.687 234.131 174.404C229.774 179.798 225.245 185.047 220.895 190.454C219.29 192.411 217.661 194.375 215.757 196.053C215.246 196.487 214.623 196.974 213.93 196.783C211.962 195.801 211.864 193.013 211.208 191.143C209.179 183.009 206.659 175.003 204.173 167C202.837 163.852 201.915 160.567 200.913 157.308C200.845 156.979 200.714 156.575 200.579 156.142C197.42 155.331 194.274 155.045 191.075 154.749C189.019 162.315 187.299 170.016 185.116 177.528C190.906 174.256 196.781 171.341 202.242 167.598C203.497 166.573 204.98 168.785 203.927 169.804C199.681 172.824 194.897 174.989 190.546 177.706C188.787 178.48 183.427 182.861 182.495 179.771C182.347 176.24 183.911 172.598 184.837 169.246C185.933 164.303 187.158 159.306 188.48 154.46C185.372 153.959 182.431 153.283 179.319 153.189C179.171 153.169 179.026 153.152 178.885 153.139C165.928 154.023 153.623 158.795 142.332 165.123C133.581 169.179 126.104 175.504 118.733 181.536C110.782 188.077 102.943 194.869 95.8871 202.378C95.8669 202.415 95.84 202.449 95.8198 202.486V202.492C95.7727 202.866 95.7323 203.226 95.7592 203.538C95.7289 205.677 95.739 207.819 95.7491 209.951C95.702 211.077 96.1596 213.26 94.4639 213.229C93.007 213.011 93.0003 211.293 93.0373 210.139C93.0205 208.515 93.0205 206.901 93.0339 205.273C93.1315 204.671 93.0339 203.606 93.0541 202.583C92.8421 202.18 92.8119 201.739 92.7648 201.262C92.6638 200.135 92.5124 199.012 92.3341 197.889C85.1675 199.701 77.8933 201.077 70.7839 203.128C69.4684 203.326 68.0216 204.291 66.6791 204.204C67.0089 206.763 67.342 209.322 67.5909 211.837C68.4826 218.361 69.8015 224.78 71.726 231.048C72.621 233.284 73.4218 235.631 74.8551 237.589C76.9411 239.673 79.4612 241.614 82.1932 242.632C90.9546 245.118 99.5881 240.857 106.977 236.526C112.757 233.799 117.764 229.868 122.844 226.055C135.35 216.854 147.385 207.035 159.511 197.344C159.542 197.297 159.572 197.253 159.602 197.213C159.875 196.843 160.305 196.604 160.686 196.362C161.759 195.888 162.613 194.728 163.788 194.617C163.966 194.637 164.128 194.694 164.279 194.775C164.467 193.4 164.437 191.998 164.488 190.605C164.575 190.007 164.807 189.361 165.463 189.21C166.678 188.971 168.014 190.794 167.152 191.749C167.647 197.647 164.622 203.084 162.435 208.269C160.437 211.76 159.151 215.835 160.911 219.706C162.294 223.307 165.648 225.897 168.417 228.402C172.293 230.957 172.973 230.47 173.182 235.564C173.922 242.743 173.673 249.94 173.844 257.142C173.754 259.607 174.309 262.119 174.329 264.567C174.447 264.705 174.531 264.846 174.591 264.998C174.975 264.779 175.456 264.688 175.994 264.779C180.974 264.819 185.913 264.036 190.889 264.046C206.474 263.346 222.066 262.664 237.664 262.731C245.15 263.114 252.65 263.39 260.136 263.531C260.237 263.531 260.328 263.538 260.415 263.552C260.526 262.822 260.594 262.156 260.533 261.625C261.226 253.336 261.64 245.03 262.457 236.744C263.659 228.758 263.824 220.715 264.062 212.678C264.025 212.496 263.995 212.308 263.972 212.123C263.921 211.629 263.891 211.02 264.251 210.617C264.951 209.806 266.118 210.334 266.522 211.178C266.492 211.131 266.461 211.081 266.424 211.037C266.394 211 266.364 210.966 266.327 210.929C266.646 211.299 266.828 211.773 266.72 212.264C266.71 212.311 266.7 212.355 266.683 212.395C268.82 219.84 272.508 226.788 275.273 233.994C277.339 238.09 280.108 241.778 282.349 245.78C284.849 248.786 286.857 252.317 290.178 254.496C294.512 257.889 299.562 260.596 304.814 262.237C312.485 263.965 321.718 261.376 324.517 253.396C324.786 252.916 324.988 252.404 325.237 251.924C325.385 251.439 325.57 250.972 325.749 250.562C327.051 246.436 328.286 242.263 329.029 237.995L329.039 237.985ZM332.434 201.79C331.872 201.739 331.341 201.699 330.937 201.749C323.188 201.077 315.429 200.697 307.684 199.967C307.563 204.073 307.385 208.182 307.095 212.278C307.217 212.271 307.334 212.268 307.445 212.258C311.14 212.18 314.841 211.857 318.515 212.389C322.761 213.081 326.983 213.784 331.27 213.552C331.32 212.237 331.357 210.916 331.391 209.598C331.701 206.988 332.236 204.409 332.434 201.786V201.79ZM337.693 84.332C339.419 79.4192 344.035 75.0242 343.016 69.3985C341.199 72.0852 339.853 75.0477 338.938 78.1582C337.986 80.196 336.758 82.1396 335.314 83.8646C334.322 84.7255 333.006 83.4409 333.147 82.3481C334.463 77.5933 337.555 72.6401 335.816 67.6331C334.049 69.6608 333.958 72.4686 333.077 74.8527C332.003 78.0002 330.254 80.9089 328.191 83.5015C328.188 83.4947 328.188 83.4914 328.188 83.4846C326.755 84.601 325.439 82.153 326.539 81.04C328.666 76.5979 331.68 71.2782 329.218 66.4124C329.059 66.4124 328.898 66.4494 328.753 66.5099C327.478 74.0726 323.202 80.623 318.845 86.7834C315.813 90.8892 314.427 95.5431 313.236 100.399C311.311 110.944 311.422 121.779 310.477 132.448C310.467 135.327 310.023 138.37 309.552 141.147C308.801 148.603 308.717 156.084 308.535 163.499C307.937 174.633 308.024 185.82 307.765 196.981C307.893 196.998 308.024 197.001 308.145 197.008C312.623 197.482 317.125 197.459 321.614 197.778C325.294 198.202 328.871 198.629 332.505 198.703C332.498 193.077 333.218 187.508 333.02 181.883C332.983 173.086 332.737 164.326 332.892 155.533C333.514 139.234 330.947 106.109 339.093 92.8665C343.181 87.0457 347.423 80.8416 348.419 73.659C347.605 75.4714 339.005 91.0506 337.693 84.3253V84.332ZM348.971 68.8873C351.377 69.6204 351.02 73.0604 350.926 75.0746C350.307 79.5806 348.47 83.831 346.269 87.7754C342.979 92.8833 339.365 97.8936 338.319 104.027C335.883 121.392 336.573 138.995 336.414 156.471C336.075 167.749 336.613 178.924 336.445 190.205C336.041 195.68 336.398 201.208 335.654 206.655C334.783 212.194 335.294 217.83 334.682 223.405C334.14 231.959 333.144 240.521 330.076 248.514C329.631 250.151 329.164 251.782 328.612 253.39C328.43 254.133 328.09 255.108 327.468 255.508C325.698 259.052 323.114 262.358 319.628 264.214C314.948 266.309 309.885 267.126 304.814 266.168C297.695 264.264 291.154 260.209 285.626 255.387C280.98 250.283 277.719 244.139 274.015 238.345C271.397 234.051 270.223 229.128 268.174 224.572C267.774 223.509 267.343 222.453 266.912 221.394C266.741 228.607 265.869 235.79 265.287 242.982C264.544 249.825 264.392 256.705 263.749 263.548C263.541 264.318 263.612 265.734 263.548 267.069C267.141 270.902 268.917 276.007 271.084 280.721C275.963 292.306 277.655 304.936 278.702 317.354C279.644 328.064 279.634 338.912 278.964 349.636C277.561 363.742 275.159 377.805 273.184 391.78C271.189 404.329 269.271 416.885 267.171 429.408C267.124 429.737 267.074 430.067 267.02 430.393C268.628 429.801 270.253 429.26 271.865 428.695C284.893 424.472 297.762 419.458 311.298 417.238C317.408 416.014 323.414 414.32 329.678 413.967C332.972 413.566 336.303 413.153 339.624 413.244C341.071 413.304 342.504 415.312 342.313 416.764C342.471 417.003 342.575 417.289 342.625 417.625C343.096 423.174 344.732 423.362 338.541 424.808C344.984 432.623 346.249 449.204 342.262 458.37C341.31 460.055 338.837 464.763 336.791 461.871C334.554 454.826 333.309 447.186 329.312 440.905H329.308C320.073 444.533 311.631 449.9 302.439 453.636C297.802 455.751 293.388 458.323 288.775 460.479C284.169 462.634 279.321 464.208 274.715 466.337C266.899 469.978 258.767 472.917 250.544 475.483C243.962 477 237.206 479.084 230.396 478.361C219.774 477.228 216.221 468.311 215.414 458.851C214.67 452.099 214.29 445.296 213.587 438.527C211.709 409.857 213.597 381.127 213.419 352.427C211.925 365.79 209.987 379.123 208.291 392.449C206.844 405.469 205.643 418.533 203.772 431.499C201.262 448.013 198.938 464.531 197.299 481.163C196.468 492.32 194.853 503.413 193.453 514.483C191.115 531.7 188.686 548.873 187.579 566.211C187.4 573 186.919 579.641 186.152 586.367C185.748 588.546 186.324 592.325 183.45 590.852C183.38 590.795 183.312 590.735 183.248 590.671C183.181 591.216 182.848 591.683 182.182 591.777C181.432 591.824 180.675 591.77 179.924 591.824C178.528 591.774 177.061 592.174 175.708 591.831C175.005 591.528 174.662 590.826 174.585 590.103C174.457 588.388 174.464 586.679 174.416 584.964C170.09 591.407 162.173 594.767 154.522 593.862C150.477 593.68 146.692 592.816 143.341 590.594C141.736 589.76 140.007 587.332 142.325 586.239C145.404 585.496 148.476 584.632 151.386 583.307C154.35 582.163 157.671 580.933 159.656 578.333C160.046 568.252 160.05 558.322 159.804 548.278C159.572 538.055 159.202 527.833 158.559 517.631C157.577 506.806 156.359 495.814 155.598 485.02C154.162 471.707 153.731 458.303 152.526 444.967C151.372 428.204 150.07 411.451 149.868 394.648C149.384 377.808 149.868 360.971 151.184 344.181C151.934 335.132 152.86 326.073 154.434 317.129C156.88 308.349 158.589 299.734 161.873 291.29C164.151 285.621 166.301 279.904 168.347 274.154C169.097 272.227 170.174 268.276 171.469 265.929C169.911 255.084 170.958 243.789 169.602 232.837C162.788 228.943 156.029 221.831 157.193 213.398C158.33 208.111 161.631 203.569 163.334 198.474C163.152 198.605 162.974 198.733 162.792 198.854C162.745 198.992 162.674 199.123 162.583 199.244C157.415 203.239 152.318 207.52 147.106 211.481C138.604 218.65 129.681 225.305 120.721 231.902C116.835 235.009 112.619 237.609 108.138 239.774C101.27 243.84 93.4949 247.401 85.3156 246.463C69.8385 244.549 67.527 227.813 65.1684 215.244C64.0144 207.348 63.1732 199.221 62.5172 191.312C62.5071 190.78 62.4095 190.229 62.3186 189.674C62.2917 189.647 62.2614 189.617 62.2379 189.587C61.5751 188.904 61.565 187.862 62.1168 187.26C60.6801 176.708 59.3242 166.636 58.8767 155.994C58.0826 145.811 56.7772 135.882 56.8209 125.693C56.1615 115.595 56.3869 105.419 57.4938 95.3582C58.1567 87.7115 59.7616 75.9557 69.7779 76.3592C69.8082 76.3592 69.8385 76.3659 69.8654 76.3693C72.6143 75.6396 75.4069 74.7922 78.2264 74.0793C78.1355 71.8902 76.1269 61.6509 77.8428 59.6838C77.8529 59.4921 77.9101 59.3004 78.0043 59.1188C78.1927 58.7758 78.5057 58.5875 78.8589 58.4564C80.9349 57.7132 83.0209 56.9634 85.1709 56.5027C89.4439 55.9209 93.3939 55.0399 97.5963 54.3035C101.328 53.7722 105.335 53.3485 108.979 54.4548C110.415 55.4199 110.822 57.3433 111.331 58.8969C115.062 79.4528 116.307 100.399 117.276 121.241C117.225 125.256 105.762 125.232 102.771 125.582C97.4617 126.412 92.1827 127.821 86.8094 127.868C86.0659 127.546 85.5073 127.038 85.0901 126.402C85.9616 136.823 87.1964 147.217 88.2798 157.588C89.1007 165.641 89.9553 173.846 90.8974 181.826C91.3819 181.476 92.0851 181.496 92.6033 182.064C93.2257 182.723 93.2122 183.567 93.2425 184.411C93.505 189.136 94.7801 193.729 95.1873 198.444C103.451 190.111 112.168 182.236 121.354 174.909C127.629 169.73 134.28 164.895 141.689 161.475C149.34 157.073 157.651 153.488 166.271 151.394C162.526 149.167 161.924 144.604 167.257 143.498C164.71 142.096 161.244 140.889 160.524 137.721C159.875 133.427 165.544 133.124 168.522 133.847C165.86 132.162 162.842 128.581 164.881 125.4C168.01 123.043 172.909 123.958 176.233 125.558C174.982 116.509 175.419 107.521 175.096 98.4417C174.824 92.0023 174.877 85.5325 175.113 79.093C175.675 72.7712 176.977 66.5369 178.084 60.2958C181.519 42.0466 191.784 32.1503 208.305 26.2388C210.545 24.9475 213.089 24.2851 215.673 24.0497C216.003 23.6562 216.544 23.3805 217.241 23.3973C218.715 23.209 223.095 22.8358 226.403 23.2998C232.392 23.3671 237.903 24.5911 244.026 28.2261C257.764 34.6891 264.268 49.5319 268.258 63.3457C271.3 76.2045 271.572 89.3962 271.919 102.531C272.272 112.252 272.669 121.99 272.329 131.719C275.674 130.754 283.439 127.115 286.211 129.876C288.149 132.401 286.676 136.248 284.576 138.219C290.939 137.664 294.845 144.14 288.079 147.466C291.242 147.846 293.089 151.467 292.177 154.38C291.565 156.589 289.569 157.92 287.517 158.63C285.175 159.783 282.729 160.748 280.189 161.189C292.352 168.973 294.761 185.878 299.572 199.517C301.312 204.594 302.193 209.921 303.475 215.116C303.603 215.661 303.724 216.209 303.845 216.753C304.464 211.548 304.209 206.312 304.498 201.084C305.252 185.387 305.147 170.009 305.642 154.386C306.174 141.134 308.128 128.026 308.572 114.774C309.343 103.909 310.537 92.5167 317.236 83.5048C320.611 79.0089 323.572 74.0558 325.395 68.7159C325.809 67.3204 325.84 65.7836 326.66 64.5428C329.241 61.9468 332.091 64.9665 332.4 67.8617C335.388 61.1297 338.847 65.5617 339.025 70.7301C342.481 62.959 346.633 66.5671 345.59 73.4404C346.141 72.445 346.686 71.4463 347.238 70.451C347.581 69.8188 348.1 68.7562 348.984 68.9143L348.971 68.8873Z" fill="#231F20"/>
<path d="M217.746 86.0471C217.083 85.045 218.661 84.3994 219.179 83.71C219.849 83.32 220.713 81.5916 221.514 82.3885C222.167 83.4108 220.545 84.0799 220.01 84.7659C219.321 85.1459 218.59 86.834 217.749 86.0471H217.746Z" fill="#231F20"/>
<path d="M223.324 86.9416C221.622 85.9933 224.196 84.9307 224.862 84.2447C225.683 83.626 226.457 82.9501 227.288 82.3515C227.54 82.18 227.843 82.2641 228.031 82.5029C228.741 83.7134 226.45 84.6583 225.76 85.4116C224.973 85.8992 224.27 86.8306 223.324 86.9382V86.9416Z" fill="#231F20"/>
<path d="M230.249 87.4392C229.687 86.8844 230.245 86.2488 230.74 85.8958C231.574 85.1627 232.5 84.359 233.277 83.6461C233.637 83.3939 233.899 82.8895 234.364 82.8458C234.983 82.8963 235.252 83.7907 234.788 84.1909C233.523 85.2938 232.234 86.3766 230.979 87.4796C230.777 87.6948 230.441 87.6309 230.249 87.4392Z" fill="#231F20"/>
<path d="M186.768 84.0563C186.516 83.8041 186.459 83.3972 186.64 83.0946C187.259 82.0454 187.969 81.077 188.545 80.0278C188.545 80.0312 188.545 80.0346 188.545 80.0379C189.181 79.2914 189.944 80.5659 189.399 81.1341C188.821 82.1093 188.212 83.0744 187.576 84.0126C187.377 84.3018 187 84.285 186.765 84.0529L186.768 84.0563Z" fill="#231F20"/>
<path d="M190.779 84.5002C189.9 83.5957 191.324 82.3582 191.781 81.5377C192.249 80.919 193.167 81.2048 193.053 82.0186C192.831 82.4995 192.346 82.8189 192.148 83.3502C191.795 83.8042 191.546 84.9979 190.782 84.5036L190.779 84.5002Z" fill="#231F20"/>
<path d="M160.679 186.614C159.333 185.101 157.913 183.483 157.274 181.53C157.193 181.227 157.223 180.887 157.483 180.676C157.981 180.326 158.61 181.032 158.515 181.536C159.283 183.1 160.369 184.327 161.449 185.652C161.957 186.184 161.315 187.229 160.679 186.614Z" fill="#231F20"/>
<path d="M164.861 185.367C164.458 185.346 164.168 184.933 164.152 184.553C164.115 180.928 163.371 177.518 162.903 173.987C162.994 172.703 164.609 173.402 164.091 174.394C164.273 175.8 166.534 185.356 164.861 185.367Z" fill="#231F20"/>
<path d="M264.13 207.573C262.646 207.61 259.749 203.068 261.226 202.18C261.566 202.069 261.916 202.328 262.041 202.63C262.522 203.848 262.929 205.213 263.955 206.091C264.342 206.286 264.8 206.494 264.749 207.025C264.732 207.358 264.46 207.644 264.13 207.57V207.573Z" fill="#231F20"/>
<path d="M253.891 206.245C253.091 205.875 247.408 203.427 249.924 202.617C251.297 203.471 252.778 204.177 254.238 204.883C254.911 205.179 254.709 206.524 253.895 206.245H253.891Z" fill="#231F20"/>
<path d="M207.252 268.818C205.694 268.501 206.818 265.367 206.696 264.201C207.046 260.192 207.363 256.174 207.45 252.152C207.847 239.831 207.544 227.353 209.106 215.109C209.752 208.145 211.205 201.4 213.234 194.728C213.446 193.319 215.239 194.224 214.411 195.233C209.974 209.615 209.237 224.72 209.018 239.663C209.153 248.551 208.719 257.321 208.042 266.161C207.861 267.002 208.379 268.623 207.252 268.818Z" fill="#231F20"/>
<path d="M304.525 239.031C304.141 239.014 303.825 238.648 303.775 238.281C303.62 236.96 303.66 235.631 303.566 234.307C303.677 233.392 302.523 228.17 304.542 229.693C304.663 229.848 304.744 230.026 304.754 230.214C304.643 231.65 304.962 233.133 305.003 234.596C304.858 235.598 305.837 238.944 304.522 239.031H304.525Z" fill="#231F20"/>
<path d="M310.171 239.845C309.333 238.769 306.221 235.534 307.594 234.307C308.142 234.054 308.64 234.636 308.56 235.144C309.364 236.466 310.346 237.501 311.144 238.809C311.352 239.119 311.356 239.599 311.093 239.882C310.841 240.151 310.413 240.111 310.171 239.845Z" fill="#231F20"/>
<path d="M101.102 212.587C100.241 210.354 98.9993 208.401 97.9529 206.279C97.5895 205.69 98.037 204.641 98.7772 205.156C100.093 207.348 101.388 209.665 102.303 212.086C102.623 212.964 101.482 213.485 101.099 212.587H101.102Z" fill="#231F20"/>
<path d="M113.739 210.092C111.256 209.984 109.15 208.401 107.478 206.692C106.764 205.744 102.353 202.536 104.487 201.635C105.005 201.541 105.456 202.055 105.335 202.553C107.286 204.392 109.056 206.602 111.502 207.799C112.363 208.374 114.143 208.162 114.345 209.356C114.365 209.726 114.136 210.099 113.736 210.095L113.739 210.092Z" fill="#231F20"/>
<path d="M110.56 219.682C110.072 218.902 105.806 215.607 107.902 215.271C108.652 215.462 109.187 216.128 109.779 216.602C110.496 217.429 112.269 218.358 111.653 219.629C111.388 220.022 110.876 219.992 110.56 219.686V219.682Z" fill="#231F20"/>
<path d="M126.992 67.6096C126.844 66.937 127.484 66.6983 127.985 66.5167C129.724 65.8206 131.363 65.064 133.039 64.2536C134.482 63.5239 135.966 62.8548 137.345 62.0175C137.725 61.7854 138.176 62.1352 138.328 62.4681C138.499 62.8413 138.445 63.3625 138.055 63.5811C134.835 65.2254 131.599 66.8395 128.227 68.1577C127.716 68.4738 127.083 68.2115 126.992 67.6062V67.6096Z" fill="#231F20"/>
<path d="M132.107 82.1699C131.366 82.1329 130.596 82.2271 129.869 82.1027C129.146 81.948 129.045 80.6265 129.869 80.5996C129.842 80.5996 129.819 80.5996 129.788 80.5996C129.728 80.6197 129.667 80.6365 129.61 80.6567C133.254 80.3642 137.019 80.8316 140.659 80.233C141.083 80.1725 141.423 80.5928 141.49 80.9661C142.133 82.8391 133.473 81.9782 132.103 82.1733L132.107 82.1699Z" fill="#231F20"/>
<path d="M140.639 101.297C137.349 99.881 131.727 98.9193 129.059 97.6415C128.11 95.1464 132.521 97.1674 133.594 97.2683C136.168 97.9677 138.503 98.7007 140.983 99.454C141.464 99.6053 141.706 100.227 141.622 100.685C141.534 101.149 141.08 101.485 140.639 101.297Z" fill="#231F20"/>
<path d="M311.415 57.3199C307.102 57.1417 316.341 49.3907 317.731 49.0444C319.918 47.8069 322.475 47.7464 324.867 47.1815C325.987 46.9663 327.091 46.6367 328.232 46.5594C328.581 46.5493 328.854 46.788 328.962 47.1142C329.271 48.3651 327.528 48.1297 326.754 48.3786C319.897 49.3807 316.099 50.5206 311.792 56.301C312.051 56.6373 311.923 57.3468 311.412 57.3165L311.415 57.3199Z" fill="#231F20"/>
<path d="M309.326 49.0477C308.377 47.8405 310.248 46.5493 311.018 45.749C316.129 41.0681 323.343 39.4238 330.126 39.8912C330.879 40.0223 330.987 41.4246 330.133 41.4246C322.983 40.9874 315.402 42.8873 310.46 48.3012C310.154 48.6476 309.908 49.4613 309.333 49.0477H309.326Z" fill="#231F20"/>
<path d="M234.236 42.9445C233.105 42.4771 225.491 38.3007 227.49 36.9388C227.9 36.8547 228.378 37.0935 228.439 37.534C230.114 39.4238 232.382 40.4864 234.559 41.6667C235.181 41.9492 235.003 43.2034 234.236 42.9412V42.9445Z" fill="white"/>
<path d="M237.988 40.3182C236.837 40.1165 228.701 36.2864 230.982 34.975C232.167 35.5735 233.923 37.3591 236.184 38.2334C236.941 38.8151 238.741 38.6773 238.664 39.8979C238.62 40.2174 238.294 40.4393 237.984 40.3182H237.988Z" fill="white"/>
<path d="M241.988 37.6348C241.022 37.497 233.738 34.5984 236.164 33.4618C237.597 34.2285 238.95 35.3281 240.582 35.782C241.271 36.1418 242.631 36.0477 242.617 37.0834C242.6 37.4062 242.324 37.7189 241.988 37.6348Z" fill="white"/>
<path d="M252.377 125.706C252.017 125.568 251.832 125.141 251.896 124.771C252.293 121.974 253.178 119.253 253.636 116.493C254.245 112.807 255.315 109.172 255.15 105.423C255.311 103.862 254.622 102.124 255.136 100.661C255.446 100.342 255.877 100.574 256.041 100.92C256.216 102.137 256.284 103.422 256.354 104.67C256.671 109.384 255.224 113.907 254.507 118.514C253.939 120.81 253.468 122.939 253.121 125.252C253.064 125.609 252.707 125.848 252.377 125.713V125.706Z" fill="white"/>
<path d="M250.705 145.169C250.144 141.881 250.218 138.417 250.8 135.162C251.116 134.143 250.837 129.378 252.125 129.792C252.482 129.93 252.667 130.387 252.522 130.73C252.246 133.928 251.654 137.17 251.523 140.391C251.533 141.944 251.765 143.478 251.886 145.021C251.937 145.845 250.904 145.929 250.702 145.169H250.705Z" fill="white"/>
<path d="M263.575 106.062C263.212 105.92 263.044 105.497 263.094 105.13C263.636 102.023 264.043 98.8084 264.497 95.7113C264.934 91.6997 265.429 87.5165 264.84 83.515C264.537 79.8699 262.943 76.5778 261.879 73.1244C260.604 69.8861 258.145 67.2296 256.621 64.1562C256.133 63.0936 257.337 62.2798 257.687 63.6148C259.147 66.2208 261.095 68.5377 262.472 71.2077C265.732 78.4744 267.303 86.4069 265.974 94.3394C265.675 97.1775 265.2 99.992 264.797 102.817C264.659 103.748 264.534 104.683 264.315 105.594C264.241 105.947 263.912 106.196 263.575 106.058V106.062Z" fill="white"/>
<path d="M257.192 125.178C256.842 125.047 256.63 124.607 256.71 124.243C257.74 118.655 259.274 113.157 260.294 107.585C260.657 104.942 260.62 102.275 260.371 99.6221C260.425 98.8184 259.759 96.2594 261.162 96.6428C261.475 96.8311 261.613 97.2951 261.441 97.5977C261.451 98.472 261.569 99.3396 261.633 100.214C262.4 106.159 260.788 111.892 259.429 117.582C258.8 119.933 258.457 122.337 257.942 124.711C257.875 125.067 257.528 125.313 257.192 125.175V125.178Z" fill="white"/>
<path d="M260.765 136.426C260.204 131.742 261.408 126.947 261.879 122.36C262.471 118.739 262.269 114.855 263.498 111.388C263.992 110.766 264.773 111.724 264.372 112.249C263.575 116.203 263.535 120.464 262.915 124.415C262.391 128.453 261.728 132.324 261.963 136.383C261.916 137.163 260.94 137.139 260.762 136.43L260.765 136.426Z" fill="white"/>
<path d="M257.468 149.393C255.668 147.022 254.776 134.002 256.694 131.87C257.279 131.594 257.767 132.536 257.35 132.956C256.516 137.334 256.946 142.082 257.693 146.447C257.771 147.52 259.264 148.68 258.443 149.668C258.104 149.934 257.676 149.719 257.468 149.389V149.393Z" fill="white"/>
<path d="M253.609 55.2249C251.543 54.0379 249.753 52.3431 247.805 51.0115C247.247 50.8232 247.267 49.7202 247.963 49.8278C250.191 50.8568 251.957 52.7869 254.083 54.0379C254.665 54.4145 254.359 55.5914 253.609 55.2249Z" fill="white"/>
<path d="M262.888 61.8898C260.2 57.8781 257.377 53.9102 253.854 50.6081C253.632 50.3693 253.538 49.9893 253.736 49.7035C253.925 49.4244 254.268 49.4614 254.497 49.6665C257.946 52.74 260.819 56.4759 263.349 60.3026C263.682 60.7801 264.295 61.4224 263.793 61.9906C263.524 62.2866 263.124 62.1554 262.888 61.883V61.8898Z" fill="white"/>
<path d="M178.827 90.553C178.494 90.4253 178.323 90.0285 178.383 89.6888C179.012 85.2669 179.382 80.8854 180.462 76.5476C180.97 73.5548 181.701 70.5822 182.582 67.6903C182.982 66.9875 183.854 67.8181 183.524 68.4032C181.966 74.5905 180.614 80.882 179.958 87.2307C179.705 88.0243 179.981 90.7817 178.831 90.553H178.827Z" fill="white"/>
<path d="M182.775 124.64C180.938 116.197 178.794 107.706 179.302 98.9731C179.38 97.5675 179.363 96.1686 179.313 94.763C179.313 94.4032 179.36 93.9022 179.703 93.7004C180.292 93.418 180.655 94.2855 180.467 94.726C180.376 102.891 180.739 111.011 182.721 118.957C182.903 120.07 184.851 124.943 183.421 125.178C183.118 125.178 182.852 124.913 182.775 124.634V124.64Z" fill="white"/>
<path d="M191.818 138.686C191.434 138.669 191.158 138.273 191.145 137.913C191.088 136.164 191.017 134.412 190.802 132.677C189.86 126.258 187.639 120.104 186.488 113.792C186.508 113.439 186.798 113.049 187.191 113.211C187.525 113.348 187.689 113.789 187.588 114.108C187.747 115.016 188.1 115.874 188.342 116.765C190.085 123.796 192.477 130.777 192.4 138.081C192.396 138.4 192.147 138.703 191.818 138.689V138.686Z" fill="white"/>
<path d="M186.132 145.237C185.57 144.927 185.704 144.224 185.893 143.74C186.667 140.199 186.552 136.561 185.684 133.084C185.573 132.196 184.904 130.179 186.095 129.886C186.673 129.836 186.993 130.696 186.562 131.06C186.969 134.52 188.073 137.946 187.481 141.494C187.262 142.345 187.501 145.738 186.128 145.237H186.132Z" fill="white"/>
<path d="M272.427 154.07C268.362 153.697 263.447 150.109 263.78 145.727C264.126 145.055 264.937 145.717 264.786 146.269C265.59 150.085 269.584 152.429 273.298 152.55C274.059 152.587 274.304 153.959 273.487 154.087C273.133 154.104 272.783 154.104 272.43 154.07H272.427Z" fill="white"/>
<path d="M275.088 147.621C273.735 147.577 267.275 145.119 269.429 143.37C270.145 143.35 269.907 144.14 270.492 144.386C272.231 145.314 274.045 146.181 276.037 146.198C276.824 146.128 277.124 147.503 276.306 147.654C275.895 147.701 275.495 147.691 275.085 147.617L275.088 147.621Z" fill="white"/>
<path d="M274.325 140.125C272.966 139.813 272.794 137.798 274.362 138.693C275.132 138.915 275.937 138.888 276.717 138.74C277.107 138.673 277.417 139.063 277.478 139.409C277.585 140.804 275.169 140.388 274.325 140.129V140.125Z" fill="white"/>
<path d="M172.364 149.763C170.978 149.514 168.75 149.036 168.461 147.426C168.491 146.666 169.544 146.676 169.672 147.379C170.897 148.108 172.401 148.485 173.794 148.142C174.124 148.075 174.423 148.404 174.507 148.687C174.82 149.87 173.128 149.796 172.36 149.759L172.364 149.763Z" fill="white"/>
<path d="M174.632 142.062C173.522 142.338 167.324 138.834 169.818 138.088C171.9 140.045 175.043 141.625 177.768 139.984C178.481 139.661 178.993 140.889 178.343 141.255C177.23 141.938 175.941 142.361 174.629 142.066L174.632 142.062Z" fill="white"/>
<path d="M174.988 133.316C173.986 133.131 170.719 131.379 172.095 130.226C172.388 130.131 172.687 130.38 172.775 130.653C173.316 131.231 174.006 131.561 174.716 131.799C175.268 131.978 175.988 132.048 176.55 131.988C176.923 131.951 177.212 132.28 177.28 132.63C177.414 133.844 175.732 133.447 174.992 133.319L174.988 133.316Z" fill="white"/>
<path d="M187.953 151.901C187.576 151.874 187.189 151.817 186.826 151.74C186.257 151.632 186.109 150.603 186.748 150.499C190.143 150.852 193.935 148.972 195.153 145.704C195.304 145.253 195.533 144.534 196.142 144.853C196.472 145.035 196.617 145.472 196.506 145.825C195.493 149.524 191.654 151.821 187.953 151.901Z" fill="white"/>
<path d="M197.427 131.789C197.097 129.99 197.087 128.208 196.663 126.486C196.512 125.316 195.381 123.557 196.502 122.65C197 122.518 197.346 123.124 197.205 123.551C197.292 124.936 197.982 126.264 198.127 127.663C198.369 129.039 198.423 130.364 198.598 131.648C198.753 132.583 197.572 132.68 197.43 131.789H197.427Z" fill="white"/>
<path d="M199.368 140.801C198.392 140.428 199.008 139.1 198.873 138.306C198.897 137.664 198.638 135.969 199.725 136.329C200.162 136.578 200.118 137.119 200.075 137.55C199.933 138.333 200.509 140.835 199.371 140.801H199.368Z" fill="white"/>
<path d="M192.188 42.6855C191.431 42.4501 191.647 41.475 192.192 41.1118C193.961 39.6961 195.903 38.4856 197.861 37.3524C198.133 37.2313 198.416 37.3692 198.571 37.6146C198.729 37.8736 198.749 38.3174 198.47 38.5091C197.669 39.0236 196.858 39.5414 196.064 40.0727C194.94 40.8125 193.716 41.4447 192.723 42.356C192.646 42.5813 192.424 42.736 192.188 42.6822V42.6855Z" fill="white"/>
<path d="M193.268 37.6752C192.683 37.5037 192.666 36.8278 192.949 36.4243C194.389 35.3314 196.337 34.975 197.948 34.1276C198.621 33.9292 199.042 35.0927 198.433 35.402C196.72 36.162 194.833 36.8245 193.265 37.6718L193.268 37.6752Z" fill="white"/>
<path d="M54.2811 35.6072C58.6786 38.758 61.4375 45.0092 59.1092 50.1708C56.7473 54.8685 51.9561 57.7839 47.4375 60.1445C45.2371 61.2273 43.2318 62.6833 40.9102 63.5038C39.312 64.1259 37.5793 64.2066 35.9407 64.6773C37.5086 69.7819 38.2724 75.0579 38.7905 80.3541C38.7501 81.188 39.7158 83.1249 38.158 82.8996C37.5086 82.5297 37.226 81.7327 36.7751 81.1544C36.0114 81.1241 35.7523 80.27 35.4192 79.7118C32.8991 75.1756 30.0493 70.7974 28.3199 65.8711C24.5482 65.0775 20.6285 65.2961 16.8265 64.6303C13.5831 63.8299 10.2454 62.9826 7.26438 61.4425C2.38573 58.2244 -1.89065 51.5125 0.871673 45.6918C5.97238 35.439 25.3187 34.1545 35.5168 33.0045C41.7614 32.5337 48.8035 32.1403 54.2844 35.6038L54.2811 35.6072Z" fill="#24D066"/>
<path d="M20.2276 51.9329C18.8447 51.4655 17.9868 49.7909 18.3501 48.382C18.5083 47.4808 19.4335 46.6704 20.1838 47.5514C22.5256 47.3597 22.5929 52.2087 20.2276 51.9329ZM20.3285 50.4769C20.3924 50.4399 20.4194 50.3693 20.4766 50.3256C20.5741 50.1104 20.6145 49.8683 20.6044 49.6362H20.5977C20.4934 49.6564 20.3857 49.6396 20.2848 49.5824C20.204 49.5387 20.1266 49.4883 20.0459 49.4345C20.0459 49.4378 20.0459 49.4446 20.0459 49.4479C20.0728 49.6732 19.9752 49.9187 19.7969 50.0532C19.9449 50.2415 20.1233 50.4399 20.3285 50.4803V50.4769Z" fill="#231F20"/>
<path d="M32.3198 50.1708C30.3818 48.5265 31.7141 43.8221 34.4765 46.3508C36.253 47.7564 34.5505 51.7244 32.3198 50.1708ZM33.4873 48.3281C33.5108 48.4895 33.5176 48.6576 33.494 48.819C33.6555 48.6273 33.7531 48.3953 33.8237 48.1566C33.5546 48.1667 33.3695 47.975 33.2585 47.7631C33.2147 47.743 33.1643 47.7295 33.1138 47.7329C33.1138 47.7329 33.1138 47.7329 33.1104 47.7329C33.3123 47.864 33.457 48.096 33.4873 48.3247V48.3281Z" fill="#231F20"/>
<path d="M44.7895 47.9346C42.1921 45.5639 45.2774 42.3795 47.5619 44.9923C48.7564 46.6501 46.5324 49.3705 44.7895 47.9346Z" fill="#231F20"/>
</g>
<defs>
<clipPath id="clip0_14_6">
<rect width="351" height="297" fill="white"/>
</clipPath>
</defs>
</svg>
