<svg width="180" height="34" viewBox="0 0 180 34" fill="none" xmlns="http://www.w3.org/2000/svg">
<path fill-rule="evenodd" clip-rule="evenodd" d="M14.4995 14.7581C13.7025 14.7524 12.9107 14.8879 12.1591 15.158C11.4473 15.4104 10.7947 15.8126 10.2436 16.3378C9.68513 16.8839 9.24273 17.5411 8.94283 18.2698C8.59865 19.1291 8.43122 20.0523 8.45168 20.9813C8.45168 23.0579 9.03213 24.6136 10.1934 25.6483C11.3688 26.6914 12.8835 27.2467 14.4392 27.2044C15.3017 27.2246 16.1619 27.1089 16.9902 26.8627C17.6443 26.6553 18.2839 26.4037 18.9057 26.11C19.4943 26.5114 19.9955 27.0328 20.3769 27.6417C20.7166 28.2441 20.8866 28.9302 20.8684 29.6251C20.8684 30.9928 20.2295 32.0553 18.9526 32.8119C17.6756 33.5688 15.9082 33.9448 13.6504 33.9402C11.7461 33.9668 9.85182 33.6517 8.05356 33.0105C6.46626 32.4423 5.00547 31.5553 3.75751 30.4011C2.55978 29.2746 1.61432 27.8955 0.986249 26.3596C0.315386 24.7057 -0.0191125 22.9293 0.00358508 21.1388C-0.0403211 19.147 0.319485 17.1681 1.05955 15.3255C1.69991 13.7527 2.68182 12.3492 3.93164 11.2224C5.16062 10.1473 6.58719 9.3337 8.12723 8.82909C9.74653 8.28909 11.4391 8.01813 13.1421 8.02509C15.4982 8.02509 17.3143 8.46071 18.5916 9.3318C19.8686 10.2025 20.5071 11.324 20.5071 12.6963C20.5105 13.3188 20.3587 13.9319 20.0658 14.4776C19.7912 15.002 19.4445 15.4834 19.0363 15.907C18.3851 15.6014 17.7154 15.3411 17.0304 15.1272C16.2096 14.8745 15.3564 14.7501 14.4995 14.7581ZM48.6101 33.1301C48.1026 33.2664 47.5865 33.3672 47.0656 33.4308C46.3419 33.5328 45.6126 33.5826 44.8822 33.5815C44.233 33.5872 43.5844 33.5366 42.9433 33.4308C42.4191 33.3512 41.9216 33.1435 41.4926 32.8257C41.0859 32.5068 40.7719 32.0817 40.5828 31.5946C40.3429 30.9454 40.229 30.2539 40.2487 29.5602V18.4233C40.2487 17.056 39.9142 16.094 39.246 15.5376C38.5446 14.9748 37.6728 14.6795 36.7817 14.7034C36.1517 14.6996 35.5244 14.7837 34.9164 14.9531C34.4156 15.0821 33.936 15.2849 33.4921 15.5547V33.1301C32.9846 33.2664 32.4685 33.3672 31.9476 33.4308C31.2239 33.5328 30.4946 33.5826 29.7646 33.5815C29.1149 33.5872 28.4664 33.5366 27.8253 33.4308C27.3011 33.3512 26.8036 33.1435 26.3746 32.8257C25.9679 32.5072 25.6538 32.0817 25.4652 31.5946C25.2248 30.9454 25.1114 30.2539 25.1307 29.5602V0.451771C25.5028 0.378705 26.0412 0.286231 26.7455 0.174729C27.4506 0.0578994 28.1639 2.7322e-08 28.8787 0.000434094C29.528 -0.00527413 30.1765 0.0453396 30.8176 0.150752C31.34 0.230288 31.8363 0.43655 32.265 0.752408C32.6713 1.07131 32.9853 1.49677 33.1747 1.98349C33.4143 2.63309 33.5278 3.32418 33.5089 4.01792V8.93504C34.1436 8.70404 34.791 8.51148 35.4478 8.35698C36.3884 8.1256 37.3524 8.01106 38.3198 8.01524C41.5581 8.01524 44.0856 8.8437 45.9021 10.501C47.7186 12.1583 48.6269 14.6258 48.6269 17.9039V33.1301H48.6101ZM63.9721 27.7615C64.5898 27.7566 65.2059 27.6983 65.8143 27.5872C66.3367 27.5199 66.8438 27.3589 67.3119 27.1119V23.091L63.7783 23.392C62.9924 23.4236 62.2222 23.6291 61.5216 23.9937C60.965 24.2757 60.62 24.8632 60.639 25.4984C60.6241 26.135 60.9073 26.7409 61.401 27.129C61.9048 27.5507 62.7617 27.7615 63.9721 27.7615ZM63.5811 8.03217C65.2082 8.01581 66.8316 8.20076 68.4151 8.58284C69.7502 8.89527 71.0149 9.46343 72.1427 10.258C73.1581 10.9932 73.9766 11.9774 74.5232 13.1202C75.1081 14.4034 75.3939 15.808 75.3589 17.2233V28.4629C75.3902 29.24 75.1364 30.0011 74.6467 30.5962C74.1578 31.1598 73.5859 31.642 72.9519 32.0256C70.8255 33.3294 67.8313 33.9828 63.9688 33.9851C62.3949 34.001 60.8243 33.8325 59.2884 33.482C58.011 33.2015 56.7921 32.6919 55.6877 31.9776C54.7174 31.3395 53.923 30.4581 53.3808 29.4169C52.8227 28.2989 52.5444 27.0571 52.5716 25.8024C52.5716 23.4932 53.2406 21.7199 54.5774 20.4819C55.9151 19.244 57.992 18.4749 60.8094 18.1739L67.2382 17.4695V17.1277C67.2885 16.2403 66.7996 15.4126 66.0082 15.0454C65.1743 14.6283 63.9721 14.4194 62.4008 14.4194C61.18 14.4171 59.9626 14.551 58.7701 14.8197C57.6806 15.0602 56.6135 15.3962 55.5806 15.8247C55.1121 15.4712 54.7401 15.0001 54.5008 14.457C54.2106 13.8561 54.0595 13.1955 54.0595 12.5254C54.019 11.7688 54.24 11.0218 54.6846 10.4156C55.1988 9.82115 55.8474 9.36449 56.5737 9.08554C57.6601 8.68406 58.789 8.41425 59.9369 8.28182C61.145 8.12122 62.3621 8.0375 63.5811 8.03217ZM88.8053 24.797C88.8053 25.6677 89.075 26.2869 89.6142 26.6537C90.3062 27.0628 91.1002 27.2554 91.898 27.2078C92.4074 27.2059 92.916 27.1637 93.4187 27.0811C93.8853 27.0065 94.3452 26.8923 94.7932 26.7393C95.0934 27.1176 95.3494 27.5309 95.5555 27.9704C95.7851 28.4815 95.8993 29.0386 95.8897 29.6011C95.9209 30.804 95.4045 31.9537 94.4921 32.7129C93.5605 33.5151 91.9166 33.9166 89.561 33.9166C86.6814 33.9166 84.4646 33.2475 82.9111 31.9091C81.3577 30.5711 80.5778 28.3967 80.5711 25.3853V3.91537C80.9209 3.81262 81.4302 3.70454 82.0989 3.59037C82.8051 3.47088 83.5195 3.41265 84.235 3.41581C85.6749 3.41581 86.796 3.676 87.5982 4.19583C88.4008 4.71528 88.8019 5.81203 88.8019 7.48532V10.6995H95.2311C95.4573 11.1379 95.6463 11.5953 95.7959 12.0672C95.9819 12.6589 96.0735 13.2777 96.0668 13.8999C96.0668 15.0716 95.8127 15.9161 95.3044 16.4336C94.7593 16.9683 94.0229 17.2499 93.2684 17.213H88.8053V24.797ZM111.873 16.8643C113.248 16.8643 114.304 16.5386 115.04 15.8863C115.775 15.2344 116.143 14.2385 116.143 12.8978C116.143 11.626 115.758 10.6469 114.989 9.96074C114.22 9.2746 113.099 8.93286 111.626 8.93513C111.102 8.93513 110.669 8.94314 110.326 8.95912C109.971 8.97739 109.618 9.01963 109.269 9.08547V16.8678H111.87L111.873 16.8643ZM109.323 32.9796C108.764 33.1162 108.198 33.2166 107.627 33.2802C106.871 33.3803 106.108 33.4305 105.344 33.4309C104.677 33.4393 104.011 33.3807 103.355 33.2566C102.832 33.1622 102.337 32.948 101.907 32.6306C101.5 32.309 101.193 31.8729 101.025 31.3759C100.807 30.6955 100.707 29.9816 100.73 29.2661V5.62168C100.694 5.02193 100.898 4.43284 101.295 3.99064C101.733 3.57393 102.256 3.26226 102.827 3.07769C104.061 2.64767 105.336 2.35312 106.631 2.199C108.056 2.01481 109.491 1.92196 110.927 1.92196C115.443 1.92196 118.897 2.90911 121.291 4.88303C123.685 6.85734 124.885 9.52995 124.892 12.9013C124.913 14.4189 124.655 15.927 124.13 17.3465C123.639 18.6457 122.868 19.8144 121.873 20.7657C120.784 21.7731 119.496 22.5266 118.095 22.9745C116.389 23.5225 114.608 23.7854 112.819 23.7542H109.323V32.9864V32.9796ZM135.975 33.1301C135.467 33.2664 134.951 33.3672 134.43 33.4308C133.706 33.5328 132.977 33.5826 132.247 33.5815C131.597 33.5872 130.949 33.5366 130.308 33.4308C129.783 33.3512 129.286 33.1435 128.857 32.8257C128.45 32.5072 128.136 32.0817 127.948 31.5946C127.707 30.9454 127.594 30.2539 127.613 29.5602V14.5151C127.595 13.8297 127.738 13.1493 128.031 12.532C128.327 11.9551 128.738 11.4486 129.238 11.0448C129.831 10.5665 130.483 10.1703 131.177 9.8651C131.982 9.49939 132.809 9.18886 133.654 8.93504C134.556 8.66294 135.473 8.45249 136.402 8.30598C137.344 8.15604 138.295 8.08031 139.247 8.08031C140.807 8.08031 142.051 8.39008 142.978 9.01038C143.905 9.6303 144.364 10.6422 144.353 12.0464C144.351 12.5096 144.285 12.9704 144.155 13.4141C144.034 13.8411 143.87 14.2536 143.664 14.6452C142.977 14.6452 142.274 14.6783 141.554 14.7445C140.835 14.8104 140.131 14.9108 139.445 15.0456C138.758 15.1799 138.112 15.3222 137.506 15.4729C136.975 15.5974 136.458 15.7739 135.961 15.9992V33.1301H135.975ZM154.379 20.9845C154.379 23.0364 154.763 24.6012 155.532 25.6793C156.262 26.7483 157.474 27.3629 158.748 27.3104C160.017 27.3652 161.22 26.7323 161.914 25.6451C162.65 24.5419 163.018 22.9862 163.018 20.9776C163.018 18.9694 162.641 17.4217 161.888 16.3345C161.134 15.3081 159.952 14.7046 158.698 14.7046C157.444 14.7046 156.262 15.3081 155.509 16.3345C154.756 17.4263 154.379 18.9767 154.379 20.9845ZM171.556 20.9845C171.587 22.8769 171.27 24.758 170.623 26.5306C170.054 28.0795 169.158 29.4803 167.999 30.6337C166.84 31.7571 165.46 32.613 163.95 33.1435C162.26 33.7329 160.484 34.0222 158.698 33.9986C156.908 34.0237 155.13 33.7177 153.446 33.0959C151.935 32.5319 150.556 31.6513 149.397 30.5108C148.245 29.3513 147.35 27.9524 146.773 26.4077C146.129 24.6766 145.813 22.8362 145.84 20.9845C145.815 19.1498 146.132 17.327 146.773 15.613C147.35 14.0687 148.245 12.669 149.397 11.5098C150.557 10.3693 151.936 9.48874 153.446 8.92476C155.13 8.30256 156.908 7.99697 158.698 8.02209C160.49 7.99773 162.271 8.31283 163.95 8.95216C165.459 9.53136 166.837 10.4188 167.999 11.5608C169.151 12.7208 170.046 14.1201 170.623 15.6643C171.261 17.3612 171.577 19.1669 171.556 20.9845ZM175.58 10.5226C176.064 10.5226 176.347 10.2478 176.347 9.78051C176.347 9.31357 176.064 9.05251 175.58 9.05251H174.788V10.5226H175.58ZM176.588 11.1684L177.501 12.6107H176.279L175.634 11.3743H175.58H174.788V12.6107H173.727V8.21454H175.58C176.722 8.21454 177.367 8.76405 177.367 9.73941C177.367 10.4126 177.085 10.9073 176.588 11.1684ZM178.939 10.55C178.939 8.59927 177.421 6.99182 175.46 6.99182C173.485 6.99182 171.981 8.62667 171.981 10.5778C171.981 12.5285 173.471 14.1359 175.433 14.1359C177.407 14.1359 178.939 12.5011 178.939 10.55ZM180 10.55C180 13.0917 177.999 15.235 175.433 15.235C172.881 15.235 170.906 13.1191 170.906 10.5778C170.906 8.03568 172.894 5.89241 175.46 5.89241C178.012 5.89241 180 7.99458 180 10.55Z" fill="white"/>
</svg>
