<svg width="180" height="164" viewBox="0 0 180 164" fill="none" xmlns="http://www.w3.org/2000/svg">
<path d="M20.5126 97.3539H2.11268C1.40051 97.3539 0.823362 97.9311 0.823362 98.6433V162.452C0.823362 163.165 1.40051 163.742 2.11268 163.742H8.60691C9.31908 163.742 9.89623 163.165 9.89623 162.452V137.352H20.5126C25.5798 137.352 29.686 133.246 29.686 128.178V106.53C29.686 101.463 25.5798 97.3566 20.5126 97.3566V97.3539ZM20.4093 122.505C20.4093 125.009 18.3787 127.04 15.8742 127.04H10.9261V106.835H15.8742C18.3787 106.835 20.4093 108.865 20.4093 111.37V122.505Z" fill="white"/>
<path d="M53.9845 98.4367C53.8839 97.8119 53.3438 97.3539 52.7137 97.3539H42.333C41.7002 97.3539 41.1628 97.8119 41.0622 98.4367L30.7583 162.246C30.6312 163.03 31.2375 163.739 32.029 163.739H38.4677C39.111 163.739 39.6537 163.265 39.7438 162.63L41.2369 151.987H53.8124L55.3056 162.63C55.3956 163.265 55.9383 163.739 56.5816 163.739H63.0203C63.8145 163.739 64.4181 163.03 64.2911 162.246L53.9871 98.4367H53.9845ZM42.8837 141.884L47.522 110.033L52.1604 141.884H42.8837Z" fill="white"/>
<path d="M126.565 98.4367C126.464 97.8119 125.924 97.3539 125.294 97.3539H114.913C114.281 97.3539 113.743 97.8119 113.642 98.4367L103.339 162.246C103.211 163.03 103.818 163.739 104.609 163.739H111.048C111.691 163.739 112.234 163.265 112.324 162.63L113.817 151.987H126.393L127.886 162.63C127.976 163.265 128.519 163.739 129.162 163.739H135.601C136.395 163.739 136.998 163.03 136.871 162.246L126.567 98.4367H126.565ZM115.461 141.884L120.1 110.033L124.738 141.884H115.461Z" fill="white"/>
<path d="M99.1661 106.038C99.1661 101.24 95.277 97.3539 90.4824 97.3539H70.4252C69.7131 97.3539 69.1359 97.9311 69.1359 98.6433V162.452C69.1359 163.165 69.7131 163.742 70.4252 163.742H76.9195C77.6316 163.742 78.2088 163.165 78.2088 162.452V137.352H84.9545C87.1096 137.352 88.8596 139.099 88.8596 141.257V162.452C88.8596 163.165 89.4367 163.742 90.1489 163.742H97.8795C98.5916 163.742 99.1688 163.165 99.1688 162.452V137.352C99.1688 133.595 96.1216 130.548 92.3648 130.548H90.4824C95.2797 130.548 99.1661 126.659 99.1661 121.864V106.038ZM88.8569 122.145C88.8569 124.848 86.6648 127.04 83.9617 127.04H78.8071V105.651H83.9617C86.6648 105.651 88.8569 107.843 88.8569 110.546V122.145Z" fill="white"/>
<path d="M171.826 106.038C171.826 101.24 167.937 97.3539 163.142 97.3539H143.085C142.373 97.3539 141.796 97.9311 141.796 98.6433V162.452C141.796 163.165 142.373 163.742 143.085 163.742H149.579C150.291 163.742 150.868 163.165 150.868 162.452V137.352H157.614C159.769 137.352 161.519 139.099 161.519 141.257V162.452C161.519 163.165 162.096 163.742 162.809 163.742H170.539C171.251 163.742 171.828 163.165 171.828 162.452V137.352C171.828 133.595 168.781 130.548 165.025 130.548H163.142C167.939 130.548 171.826 126.659 171.826 121.864V106.038ZM161.517 122.145C161.517 124.848 159.325 127.04 156.621 127.04H151.467V105.651H156.621C159.325 105.651 161.517 107.843 161.517 110.546V122.145Z" fill="white"/>
<path d="M0 66.2621V77.4582C0 84.1192 5.40083 89.5201 12.0619 89.5201H18.5058C25.4792 89.5201 31.1342 83.8677 31.1342 76.8917V70.4186C31.1342 63.4346 28.0949 56.7948 22.8079 52.2305L16.5043 46.79C13.3565 44.0737 11.5482 40.1237 11.5482 35.9671V34.1377C11.5482 31.7471 13.4862 29.8091 15.8769 29.8091C18.2675 29.8091 20.2055 31.7471 20.2055 34.1377V41.225C20.2055 41.9372 20.7826 42.5143 21.4948 42.5143H29.8449C30.5571 42.5143 31.1342 41.9372 31.1342 41.225V33.963C31.1342 26.7301 25.2701 20.866 18.0372 20.866H13.097C5.86414 20.866 0 26.7275 0 33.9604V38.1434C0 44.6905 2.94398 50.8936 8.01653 55.0342L15.0826 60.803C18.3258 63.4505 20.2055 67.4137 20.2055 71.5994V75.3323C20.2055 77.858 18.1563 79.9071 15.6306 79.9071H15.0244C12.4616 79.9071 10.386 77.8315 10.386 75.2688V66.2621C10.386 65.5579 9.81416 64.986 9.10993 64.986H1.27608C0.571853 64.986 0 65.5579 0 66.2621Z" fill="white"/>
<path d="M36.5959 88.2281C36.5959 88.9403 37.1731 89.5174 37.8852 89.5174H61.9031C62.6152 89.5174 63.1924 88.9403 63.1924 88.2281V79.5683C63.1924 78.8561 62.6152 78.2789 61.9031 78.2789H46.1824V59.106H58.5011C59.2132 59.106 59.7904 58.5289 59.7904 57.8167V49.2601C59.7904 48.5479 59.2132 47.9708 58.5011 47.9708H46.1824V31.2705H61.9031C62.6152 31.2705 63.1924 30.6934 63.1924 29.9812V22.1474C63.1924 21.4352 62.6152 20.8581 61.9031 20.8581H37.8852C37.1731 20.8581 36.5959 21.4352 36.5959 22.1474V88.2281Z" fill="white"/>
<path d="M110.047 20.866H97.7339C97.0349 20.866 96.4392 21.3743 96.3307 22.0653L89.8524 62.9369L83.374 22.0653C83.2655 21.3743 82.6698 20.866 81.9708 20.866H69.6575C68.8738 20.866 68.2384 21.5014 68.2384 22.285V88.3923C68.2384 89.0144 68.7441 89.5201 69.3663 89.5201H76.39C77.0121 89.5201 77.5178 89.0144 77.5178 88.3923V36.9467L86.8316 87.3598C86.9296 87.8945 87.3955 88.2811 87.9382 88.2811H91.7665C92.3092 88.2811 92.7752 87.8945 92.8731 87.3598L102.187 36.9467V88.3923C102.187 89.0144 102.693 89.5201 103.315 89.5201H110.338C110.961 89.5201 111.466 89.0144 111.466 88.3923V22.285C111.466 21.5014 110.831 20.866 110.047 20.866Z" fill="white"/>
<path d="M178.791 31.1011L151.734 1.29858C150.162 -0.432861 147.44 -0.432861 145.867 1.29858L118.81 31.1038C117.166 32.9146 117.206 35.6892 118.898 37.4524L124.386 43.1683C126.252 45.1141 129.376 45.0691 131.19 43.0729L141.017 32.2395V85.8613C141.017 85.8825 141.017 85.901 141.017 85.9222C141.06 88.5882 144.422 89.7848 146.273 87.8628L153.513 80.3413C155.483 78.2948 156.584 75.5626 156.584 72.7219V32.2395L166.412 43.0729C168.223 45.0691 171.347 45.1141 173.216 43.1683L178.704 37.4524C180.398 35.6892 180.435 32.9146 178.791 31.1011Z" fill="white"/>
</svg>
