<svg width="406" height="90" viewBox="0 0 406 90" fill="none" xmlns="http://www.w3.org/2000/svg">
<path d="M260.007 14.4228H259.647C241.358 14.6043 230.056 28.4673 230.056 45.86C230.056 62.5533 240.342 76.5829 259.024 76.5829H259.647C277.838 76.3418 289.237 64.0622 289.237 44.8689C289.237 28.8066 279.408 14.4228 260.007 14.4228ZM259.832 63.8211L259.653 63.8003H259.647C251.875 63.8003 247.047 56.2944 247.136 45.5028C247.136 35.0506 251.875 27.1846 259.647 27.1846H259.653C267.529 27.1846 272.169 35.0506 272.169 45.4136C272.169 56.3093 267.612 63.8211 259.832 63.8211ZM324.368 14.4228H324.017C305.722 14.6043 294.42 28.4673 294.42 45.86C294.42 62.5533 304.715 76.5829 323.394 76.5829H324.017C342.202 76.3418 353.604 64.0622 353.604 44.8689C353.604 28.8066 343.778 14.4228 324.368 14.4228ZM324.193 63.8211L324.017 63.8003C316.239 63.8003 311.408 56.3093 311.503 45.5028C311.503 35.0506 316.239 27.1846 324.017 27.1846C331.887 27.1846 336.533 35.0506 336.533 45.4136C336.533 56.3093 331.982 63.8211 324.193 63.8211ZM394.204 43.0802V42.9106C401.276 40.2291 404.043 35.3095 404.043 30.3155C404.043 24.4286 400.647 20.143 395.914 17.9049C391.955 15.9317 387.63 15.1847 381.161 15.0031C380.005 14.9644 378.795 14.9644 377.485 14.9644C370.08 14.9644 362.121 15.5805 358.448 16.2859V75.2436C361.671 75.8746 367.029 76.321 374.369 76.321C376.815 76.321 379.078 76.2496 381.161 76.0978C389.989 75.5025 395.595 73.693 399.215 70.952C403.242 67.9193 406 63.4461 406 57.7289C406 50.5891 401.544 45.1338 394.204 43.0802ZM374.446 26.9286C375.528 26.7381 377.044 26.5536 379.725 26.5536C380.219 26.5536 380.702 26.5923 381.161 26.631C385.655 26.9792 387.863 29.1072 387.863 32.2738C387.863 35.4017 385.67 37.5833 381.161 38.2916C380.115 38.4404 378.956 38.5327 377.672 38.5327H374.446V26.9286ZM381.161 64.4163C380.484 64.4907 379.799 64.5265 379.108 64.5265C377.044 64.5265 375.623 64.5265 374.446 64.3419V49.976H378.298C379.296 49.976 380.249 50.0147 381.161 50.1248C385.766 50.7022 389.03 52.7706 389.03 57.0176C389.03 61.6753 385.578 63.9134 381.161 64.4163ZM156.22 15.4287V75.5948H172.394V25.2501C172.394 17.6995 168.29 15.4287 156.22 15.4287ZM132.706 39.1666C125.101 36.3214 121.884 35.1398 121.884 32.1042C121.884 29.4435 124.571 27.6548 129.492 27.6548C135.476 27.6548 141.437 29.8691 142.536 30.5089C144.811 24.3364 146.122 14.518 129.662 14.518C114.473 14.518 105.442 22.7352 105.442 33.372C105.442 42.2945 112.236 47.8332 122.426 51.4849C129.215 53.8153 131.902 55.4373 131.902 58.3777C131.902 61.4164 129.215 63.2824 123.674 63.2824C117.604 63.2824 111.697 61.4164 108.039 59.5354L104.995 72.8389C108.394 74.6276 115.453 76.5115 122.694 76.5115C140.308 76.5115 148.35 67.6574 148.35 57.2974C148.347 48.9135 143.528 43.1904 132.706 39.1666ZM214.683 63.0949C203.59 63.0949 197.073 56.2944 197.073 45.4136C197.073 33.1666 205.116 27.7262 214.326 27.7262C219.151 27.7262 224.141 29.1429 225.505 29.8691C228.344 23.3661 227.658 14.518 213.614 14.518C195.64 14.518 180.085 25.3036 180.085 46.4731C180.085 62.4789 190.002 76.4877 212.541 76.4877C219.696 76.4877 225.418 75.1484 227.649 73.9966L225.418 61.3985C222.91 62.3836 218.529 63.0949 214.683 63.0949Z" fill="white"/>
<path d="M51.1475 15.2618L42.3186 0H5.10554C4.3132 0.0773802 3.51193 0.297615 2.77321 0.726182C0.991938 1.74998 -0.00593091 3.61603 2.65225e-05 5.53566C2.65225e-05 6.37494 0.184707 7.21124 0.583855 8.01182L27.8867 55.4161L36.7395 40.1187H36.7454L51.1475 15.2618Z" fill="white"/>
<path d="M42.3172 0.00116727L65.5393 40.1198H83.1822L101.743 7.8999C102.079 7.19753 102.291 6.39099 102.291 5.53385C102.291 2.5934 99.9702 0.188665 97.0511 0.00116727H42.3172Z" fill="white"/>
<path d="M36.7435 40.1195L27.8848 55.414L46.5733 87.5774C47.032 88.25 47.6218 88.8274 48.3575 89.256C49.2273 89.7589 50.1775 90 51.1247 90C52.9358 90 54.7111 89.0923 55.7715 87.4851L83.1817 40.1195H36.7435Z" fill="white"/>
</svg>
