<svg width="386" height="90" viewBox="0 0 386 90" fill="none" xmlns="http://www.w3.org/2000/svg">
<path d="M151.824 42.0489C149.203 40.2572 143.921 38.2083 138.46 38.2083C132.781 38.2083 129.122 40.6066 129.122 44.3605C129.122 47.6756 132.135 49.199 137.156 49.8168L141.963 50.4261C150.784 51.6057 155.979 55.3149 155.979 62.1799C155.979 70.0764 148.904 75.1832 137.593 75.1832C132.484 75.1832 125.583 73.9617 120.122 69.8584L123.443 64.5363C126.556 66.9346 130.691 68.9443 137.626 68.9443C144.439 68.9443 148.632 66.7166 148.632 62.6132C148.632 59.558 145.927 57.6405 140.29 56.9417L135.486 56.3743C126.201 55.2283 121.705 51.0383 121.705 44.7546C121.705 36.8051 128.296 32.0113 138.385 32.0113C144.937 32.0113 150.921 33.7387 154.938 36.506L151.824 42.0489Z" fill="white"/>
<path d="M199.47 56.9288C199.47 69.4513 190.476 75.1675 180.561 75.1675C170.56 75.1675 161.605 69.4513 161.605 56.9288V32.8341H168.769V56.2691C168.769 64.733 173.791 68.4869 180.561 68.4869C187.331 68.4869 192.322 64.733 192.322 56.2691V32.8341H199.484L199.47 56.9288Z" fill="white"/>
<path d="M241.66 38.0187L216.11 67.8379H242.055V74.3116H206.632V69.1265L232.487 39.366H207.376V32.8336H241.66V38.0187Z" fill="white"/>
<path d="M252.752 53.5723C252.752 61.8182 258.517 68.4959 267.03 68.4959C275.418 68.4959 281.27 62.0809 281.27 53.5723C281.27 45.0637 275.418 38.6935 267.03 38.6935C258.386 38.6879 252.752 45.3209 252.752 53.5723ZM287.996 74.31H280.834V68.781C277.558 72.6664 272.712 75.196 266.205 75.196C254.545 75.196 245.45 66.12 245.45 53.5975C245.45 41.075 254.534 31.9933 266.205 31.9933C272.712 31.9933 277.558 34.5286 280.834 38.4531V32.8347H287.996V74.31Z" fill="white"/>
<path d="M335.818 48.5501V74.3107H328.656V50.8757C328.656 43.242 324.465 38.7445 317.242 38.7445C310.558 38.7445 304.966 43.3287 304.966 51.0518V74.3107H297.866V32.8327H304.938V38.2442C308.348 33.5734 313.72 31.9606 318.526 31.9606C328.743 31.9662 335.818 38.5992 335.818 48.5501Z" fill="white"/>
<path d="M349.399 53.5724C349.399 62.2543 355.688 68.496 364.028 68.496C372.37 68.496 378.662 62.2543 378.662 53.5724C378.662 44.8904 372.328 38.6935 364.028 38.6935C355.73 38.6935 349.399 44.8821 349.399 53.5724ZM386 53.5724C386 65.8768 376.611 75.1709 364.028 75.1709C351.447 75.1709 342.106 65.8741 342.106 53.5724C342.106 41.2707 351.447 31.971 364.028 31.971C376.611 31.971 386 41.2651 386 53.5724Z" fill="white"/>
<path d="M94.6032 0C85.9866 5.99851 71.0782 7.63365 57.7505 9.0648L57.6722 9.2354C57.8064 16.9138 56.9504 24.5811 55.1292 32.0471C51.8895 45.0448 45.5977 56.9691 36.4496 67.4763C32.491 72.0017 28.1351 76.161 23.4324 79.901V79.9457C43.0967 73.7879 66.8511 62.2911 82.1148 40.9972C97.1882 19.9633 95.8062 7.55544 94.6396 0H94.6032ZM10.3312 27.843C1.30056 39.1273 -1.76841 55.9124 0.962049 79.149C1.16907 81.3125 1.41526 83.0707 1.60829 84.3062L1.71461 84.376C11.5566 79.5738 49.9564 57.679 49.7829 9.976L49.6906 9.89786C31.3272 11.8266 18.4386 17.6992 10.3312 27.843ZM100.075 24.0443C97.2386 31.8038 93.3387 39.1328 88.4877 45.8189C72.9918 67.1547 49.9816 78.9534 33.4226 85.0833C28.0204 87.0987 23.0183 88.6051 18.6597 89.7623V89.8267C20.7858 89.9357 22.8812 89.9916 24.9459 90H26.0117C36.2957 89.9581 45.7796 88.675 54.3402 86.165C66.3279 82.6458 76.2958 76.801 83.9612 68.7983C95.2187 57.0473 100.831 41.3606 100.123 24.0443H100.075Z" fill="white"/>
</svg>
