<svg width="506" height="90" viewBox="0 0 506 90" fill="none" xmlns="http://www.w3.org/2000/svg">
<path fill-rule="evenodd" clip-rule="evenodd" d="M449.761 11.2801H472.245L506 56.2499H483.547L500.349 78.7499H472.245L455.412 56.2499H466.563L449.761 33.7801H466.563L449.761 11.2801Z" fill="white"/>
<path fill-rule="evenodd" clip-rule="evenodd" d="M449.761 11.2801H427.277L393.491 56.2499H415.975L399.143 78.7499H427.277L444.11 56.2499H432.777L449.761 33.7801H432.928L449.761 11.2801Z" fill="white"/>
<path fill-rule="evenodd" clip-rule="evenodd" d="M23.9945 15.877H0V54.1028C0 72.6109 13.75 79.8085 31.1868 79.8085C50.1346 79.8085 62.6758 73.0645 62.6758 52.7419V15.9073H39.1346V53.2258C39.1346 59.3347 37.7747 63.629 31.489 63.629C25.6868 63.629 23.9945 59.2137 23.9945 53.2258V15.877Z" fill="white"/>
<path fill-rule="evenodd" clip-rule="evenodd" d="M68.6002 78.7194H91.2348V51.6529C91.2348 49.0521 91.2348 45.3928 95.3447 45.3928C99.4546 45.3928 99.3035 49.0521 99.3035 51.6529V78.7194H121.908V46.1489C121.908 36.9856 117.466 30.6953 105.408 30.6953C99.0013 30.6953 92.8667 33.2961 90.1167 39.8586H89.9656V31.7537H68.57V78.6892L68.6002 78.7194Z" fill="white"/>
<path fill-rule="evenodd" clip-rule="evenodd" d="M129.736 78.7197H152.34V31.7842H129.736V78.7197ZM152.34 11.2802H129.736V26.885H152.34V11.2802Z" fill="white"/>
<path fill-rule="evenodd" clip-rule="evenodd" d="M159.834 78.7195H182.439V51.653C182.439 49.0522 182.439 45.3929 186.579 45.3929C190.386 45.3929 190.386 49.0522 190.386 51.653V78.7195H213.142V51.653C213.142 49.0522 213.142 45.3929 216.98 45.3929C221.09 45.3929 221.09 49.0522 221.09 51.653V78.7195H243.724V50.5945C243.724 41.4009 243.724 30.7255 227.224 30.7255C221.573 30.7255 213.777 33.3263 212.266 38.8304H212.115C210.271 33.1751 203.713 30.7255 197.428 30.7255C190.235 30.7255 184.131 33.3263 181.381 39.8888H181.23V31.784H159.834V78.7195Z" fill="white"/>
<path fill-rule="evenodd" clip-rule="evenodd" d="M270.467 50.7457C270.165 47.0864 271.223 41.5824 276.602 41.5824C281.649 41.5824 282.253 47.2376 282.253 50.7457H270.467ZM301.805 57.913C301.805 42.0057 295.399 30.6953 277.206 30.6953C259.014 30.6953 248.165 38.6489 248.165 54.4049C248.165 70.161 258.259 79.8082 277.206 79.8082C285.154 79.8082 292.346 78.9009 298.3 77.0561V64.9896C294.794 66.8344 289.113 67.8928 283.009 67.8928C276.27 67.8928 270.921 66.5017 270.467 60.6953H301.805V57.913Z" fill="white"/>
<path fill-rule="evenodd" clip-rule="evenodd" d="M363.485 78.7197V11.2802H340.881V37.8931H340.729C337.224 32.8427 332.631 30.6955 326.526 30.6955C312.474 30.6955 306.672 41.8548 306.672 54.5564C306.672 68.0141 312.172 79.8084 327.312 79.8084C334.655 79.8084 339.249 77.2076 342.301 70.1612H342.452V78.7197H363.545H363.485ZM341.455 55.01C341.455 59.4556 340.699 64.6269 335.955 64.6269C330.908 64.6269 330.152 59.4253 330.152 54.5261C330.152 49.627 330.908 44.7278 335.652 44.7278C340.699 44.7278 341.455 49.627 341.455 54.9798V55.01Z" fill="white"/>
<path fill-rule="evenodd" clip-rule="evenodd" d="M382.251 90V0H378.473V90H382.251Z" fill="white"/>
</svg>
